<?xml version="1.0" encoding="UTF-8"?>
<svg width="95px" height="73px" viewBox="0 0 95 73" version="1.1" xmlns="http://www.w3.org/2000/svg" xmlns:xlink="http://www.w3.org/1999/xlink">
    <title>dda</title>
    <g id="Symbols" stroke="none" stroke-width="1" fill="none" fill-rule="evenodd">
        <g id="Footer" transform="translate(-756.000000, -765.000000)" fill="#666666" fill-rule="nonzero">
            <g id="Certifiicates" transform="translate(390.000000, 689.000000)">
                <g id="logos" transform="translate(148.000000, 65.000000)">
                    <path d="M312.762519,11 L312.762519,83.0296536 L218.02,83.0296536 L218.02,11 L312.762519,11 Z M310.073291,13.6881591 L220.708173,13.6881591 L220.708173,80.340369 L310.073291,80.340369 L310.073291,13.6881591 Z M301.892326,66.8356843 C303.403152,66.8356843 304.531526,67.5904029 304.999174,68.9215785 L303.968497,69.5207233 C303.632346,68.51366 302.923466,67.9617431 301.880288,67.9617431 C300.993146,67.9617431 300.237501,68.3344722 300.237501,69.0540016 C300.237501,69.8087203 300.957493,70.2402527 302.432668,70.5273236 C304.242603,70.8750498 305.143636,71.6302315 305.143636,73.0322488 C305.143636,74.3870383 303.968497,75.562177 302.07244,75.562177 C300.070352,75.562177 298.906326,74.4111152 298.630367,72.9137163 L299.769853,72.326147 C300.008307,73.7040873 300.788492,74.4356551 302.061327,74.4356551 C303.176274,74.4356551 303.847186,73.8244719 303.847186,73.0813287 C303.847186,72.2052994 303.15266,71.8219208 301.712675,71.5468883 C300.153695,71.2468529 299.014209,70.4912082 299.014209,69.0771525 C299.014209,67.7473659 300.201849,66.8356843 301.892326,66.8356843 Z M274.981743,66.8356843 C276.69676,66.8356843 277.992747,67.7353274 278.568277,69.0053847 L277.5376,69.748065 C276.937066,68.5858908 276.109191,68.0098969 274.958592,68.0098969 C273.375072,68.0098969 272.078623,69.3521849 272.078623,71.1991621 C272.078623,73.0206734 273.289414,74.3870383 274.946091,74.3870383 C276.073539,74.3870383 276.960217,73.8476228 277.596866,72.6488702 L278.591891,73.3563611 C277.716788,74.7829183 276.732413,75.56264 274.921551,75.56264 C272.533769,75.56264 270.759949,73.7633536 270.759949,71.1991621 C270.759949,68.6326556 272.654617,66.8356843 274.981743,66.8356843 Z M241.062463,66.8352212 C242.671449,66.8352212 244.014663,67.6501322 244.638811,68.8854632 L243.653972,69.5684141 C243.031677,68.4664322 242.142683,67.986283 241.038849,67.986283 C239.46783,67.986283 238.149156,69.2447648 238.149156,71.1986991 C238.149156,73.1044795 239.288179,74.3865753 240.943467,74.3865753 C242.466795,74.3865753 243.234478,73.4156274 243.415981,72.1103808 L240.583702,72.1103808 L240.583702,71.0426622 L244.710115,71.0426622 L244.710115,75.3941016 L243.847514,75.3941016 L243.534977,74.0995044 C242.994172,74.9871091 242.213987,75.561714 240.919853,75.561714 C238.556148,75.561714 236.828167,73.7281643 236.828167,71.1986991 C236.828167,68.669697 238.747838,66.8352212 241.062463,66.8352212 Z M230.258873,67.0037596 L233.618529,75.3945646 L232.249386,75.3945646 L231.350205,73.0572518 L227.871554,73.0572518 L226.972374,75.3945646 L225.605083,75.3945646 L228.963813,67.0037596 L230.258873,67.0037596 Z M254.989106,67.0032966 L254.989106,68.1543584 L250.766386,68.1543584 L250.766386,70.4796328 L254.652955,70.4796328 L254.652955,71.6302315 L250.766386,71.6302315 L250.766386,74.2435028 L255.024758,74.2435028 L255.024758,75.3945646 L249.471788,75.3945646 L249.471788,67.0032966 L254.989106,67.0032966 Z M260.894433,67.0032966 L264.661081,72.852598 C264.661081,72.852598 264.949078,73.3082073 265.021771,73.4883211 L265.021771,67.0032966 L266.268215,67.0032966 L266.268215,75.3945646 L264.949078,75.3945646 L261.18243,69.5443372 C261.18243,69.5443372 260.894433,69.0896539 260.823128,68.9095401 L260.823128,75.3945646 L259.575758,75.3945646 L259.575758,67.0032966 L260.894433,67.0032966 Z M284.279599,67.0042227 L284.279599,75.3941016 L282.985465,75.3941016 L282.985465,67.0042227 L284.279599,67.0042227 Z M294.68592,67.0032966 L294.68592,68.1543584 L290.4632,68.1543584 L290.4632,70.4796328 L294.349769,70.4796328 L294.349769,71.6302315 L290.4632,71.6302315 L290.4632,74.2435028 L294.721572,74.2435028 L294.721572,75.3945646 L289.168602,75.3945646 L289.168602,67.0032966 L294.68592,67.0032966 Z M229.610185,68.4780077 C229.610185,68.4780077 229.49119,68.8498108 229.32404,69.2808802 L228.30355,71.9307299 L230.918673,71.9307299 L229.898645,69.2808802 C229.731496,68.8498108 229.610185,68.4780077 229.610185,68.4780077 Z M297.639438,15.8093638 L297.639438,62.495286 L222.832605,62.495286 L222.832605,15.8093638 L297.639438,15.8093638 Z M294.949997,18.4983563 L225.521597,18.4983563 L225.521597,59.8056025 L294.949997,59.8056025 L294.949997,18.4983563 Z M250.768238,46.9300946 C252.377224,46.9300946 253.720438,47.7450056 254.344586,48.9803365 L253.359747,49.6632875 C252.737915,48.5613056 251.848921,48.0806933 250.745087,48.0806933 C249.173605,48.0806933 247.854931,49.3396382 247.854931,51.2931094 C247.854931,53.1993529 248.994417,54.4814486 250.649242,54.4814486 C252.17257,54.4814486 252.940253,53.5105007 253.121756,52.2052541 L250.28994,52.2052541 L250.28994,51.1375355 L254.41589,51.1375355 L254.41589,55.4889749 L253.553288,55.4889749 L253.240752,54.1943777 C252.699947,55.0815194 251.920225,55.6565873 250.625628,55.6565873 C248.262386,55.6565873 246.533942,53.8230376 246.533942,51.2931094 C246.533942,48.7650333 248.453613,46.9300946 250.768238,46.9300946 Z M277.113939,47.098633 L280.47128,55.4894379 L279.104915,55.4894379 L278.20342,53.1521251 L274.724768,53.1521251 L273.825588,55.4894379 L272.458297,55.4894379 L275.816564,47.098633 L277.113939,47.098633 Z M260.203147,47.097707 L260.203147,55.4889749 L258.909013,55.4889749 L258.909013,47.097707 L260.203147,47.097707 Z M270.434447,47.09817 L270.434447,48.2723826 L267.842938,48.2723826 L267.842938,55.4889749 L266.548803,55.4889749 L266.548803,48.2723826 L263.957294,48.2723826 L263.956831,47.09817 L270.434447,47.09817 Z M285.472796,47.09817 L285.472796,54.3383762 L289.683478,54.3383762 L289.683478,55.4889749 L284.178199,55.4889749 L284.178662,47.09817 L285.472796,47.09817 Z M242.330668,47.097707 L242.330668,55.4889749 L241.036534,55.4889749 L241.036534,47.097707 L242.330668,47.097707 Z M232.384587,47.097707 C234.940444,47.097707 236.812424,48.5488041 236.812424,51.2931094 C236.812424,54.0374148 234.940907,55.4885119 232.384587,55.4885119 L229.962079,55.4885119 L229.962079,47.097707 L232.384587,47.097707 Z M232.409127,48.2723826 L231.257602,48.2723826 L231.257602,54.3147623 L232.409127,54.3147623 C234.233416,54.3147623 235.491898,53.3442774 235.491898,51.2935724 C235.491898,49.2433305 234.232953,48.2723826 232.409127,48.2723826 Z M276.465251,48.572881 C276.465251,48.572881 276.346256,48.9442211 276.177255,49.3757535 L275.156764,52.0256033 L277.771887,52.0256033 L276.753248,49.3757535 C276.649743,49.1108818 276.553706,48.8431518 276.465251,48.572881 Z M282.737217,20.6196537 L282.737217,42.5517289 L227.646136,42.5517289 L227.646136,20.6196537 L282.737217,20.6196537 Z M280.047205,23.3085536 L230.335022,23.3085536 L230.335022,39.8624301 L280.047205,39.8624301 L280.047205,23.3085536 Z M263.785977,27.4722429 C265.500995,27.4722429 266.796981,28.3718861 267.372512,29.6419434 L266.341835,30.3846236 C265.741301,29.2224495 264.913425,28.6464556 263.762827,28.6464556 C262.179306,28.6464556 260.882857,29.9892066 260.882857,31.8357208 C260.882857,33.657232 262.093648,35.023597 263.750325,35.023597 C264.877773,35.023597 265.764452,34.4846445 266.401101,33.2858919 L267.396126,33.9929198 C266.521022,35.419477 265.536647,36.1991987 263.725785,36.1991987 C261.338003,36.1991987 259.564183,34.3999123 259.564183,31.8357208 C259.564183,29.2692142 261.459314,27.4722429 263.785977,27.4722429 Z M244.93329,27.6407813 L244.93329,33.0103965 C244.93329,34.1846091 245.665321,35.023134 246.911764,35.023134 C248.161449,35.023134 248.893479,34.1850721 248.893479,33.0103965 L248.893479,27.6407813 L250.188077,27.6407813 L250.188077,33.0460488 C250.188077,35.0722138 248.808284,36.1991987 246.911764,36.1991987 C245.018948,36.1991987 243.63823,35.0722138 243.63823,33.0460488 L243.63823,27.6407813 L244.93329,27.6407813 Z M270.842366,27.6403183 L270.842366,31.1638823 L274.752549,31.1638823 L274.752549,27.6403183 L276.049925,27.6403183 L276.049925,36.0311233 L274.752549,36.0311233 L274.752549,32.3380949 L270.842366,32.3380949 L270.842366,36.0311233 L269.548232,36.0311233 L269.548232,27.6403183 L270.842366,27.6403183 Z M258.413584,27.6403183 L258.413584,28.814531 L255.822075,28.814531 L255.822075,36.0311233 L254.527941,36.0311233 L254.527941,28.814531 L251.935968,28.814531 L251.935968,27.6403183 L258.413584,27.6403183 Z M237.084678,27.6403183 C239.640536,27.6403183 241.512516,29.0914155 241.512516,31.8352578 C241.512516,34.5800261 239.640536,36.0311233 237.084678,36.0311233 L234.66217,36.0311233 L234.66217,27.6403183 L237.084678,27.6403183 Z M237.109218,28.814531 L235.957231,28.814531 L235.957231,34.8569106 L237.109218,34.8569106 C238.933045,34.8569106 240.191527,33.8859627 240.191527,31.8357208 C240.191527,29.7850158 238.933045,28.814531 237.109218,28.814531 Z" id="dda"></path>
                </g>
            </g>
        </g>
    </g>
</svg>