<?xml version="1.0" encoding="UTF-8"?>
<svg width="72px" height="95px" viewBox="0 0 72 95" version="1.1" xmlns="http://www.w3.org/2000/svg" xmlns:xlink="http://www.w3.org/1999/xlink">
    <title>Emerce</title>
    <g id="Symbols" stroke="none" stroke-width="1" fill="none" fill-rule="evenodd">
        <g id="Footer" transform="translate(-1310.000000, -754.000000)">
            <g id="Certifiicates" transform="translate(390.000000, 689.000000)">
                <g id="logos" transform="translate(148.000000, 65.000000)">
                    <g id="Emerce" transform="translate(772.000000, 0.000000)">
                        <text id="BESTE-E-BUSINESS-BED" font-family="PTSans-Narrow, PT Sans Narrow" font-size="8" font-style="condensed" font-weight="normal" line-spacing="8" letter-spacing="-0.5" fill="#999999">
                            <tspan x="7" y="81">BESTE E-BUSINESS</tspan>
                            <tspan x="7" y="89">BEDRIJVEN 2020</tspan>
                        </text>
                        <path d="M55.1753294,26.9735107 C60.5033324,26.9735107 64.9239867,30.7897949 65.1920531,36.0281982 C65.4601195,41.2666016 65.410681,49.8208008 65.1920531,55.0219727 C64.9734252,60.2231445 60.4564574,64.0350342 55.1753294,64.0350342 C49.8942015,64.0350342 46.4221556,60.2231445 46.1844847,55.0219727 C45.9468138,49.8208008 45.9303343,41.2456055 46.1844847,36.0281982 C46.4386351,30.810791 49.8473265,26.9735107 55.1753294,26.9735107 Z M55.5817744,33.5042725 C54.4818014,33.5042725 53.7454523,34.3200067 53.725603,35.5981445 C53.7057538,36.8762824 53.706463,54.1721313 53.725603,55.4859619 C53.7447431,56.7997925 54.4914788,57.5042725 55.5817744,57.5042725 C56.67207,57.5042725 57.6321332,56.7997925 57.6497397,55.4859619 C57.6673462,54.1721313 57.6705919,36.8762824 57.6497397,35.5981445 C57.6288876,34.3200067 56.6817474,33.5042725 55.5817744,33.5042725 Z" id="Combined-Shape" fill="#666666"></path>
                        <path d="M32.6753294,27 C38.0033324,27 42.4239867,30.8162842 42.6920531,36.0546875 C42.9601195,41.2930908 42.910681,49.84729 42.6920531,55.0484619 C42.4734252,60.2496338 37.9564574,64.0615234 32.6753294,64.0615234 C27.3942015,64.0615234 23.9221556,60.2496338 23.6844847,55.0484619 C23.4468138,49.84729 23.4303343,41.2720947 23.6844847,36.0546875 C23.9386351,30.8372803 27.3473265,27 32.6753294,27 Z M33.0817744,33.5307617 C31.9818014,33.5307617 31.2454523,34.3464959 31.225603,35.6246338 C31.2057538,36.9027716 31.206463,54.1986206 31.225603,55.5124512 C31.2447431,56.8262817 31.9914788,57.5307617 33.0817744,57.5307617 C34.17207,57.5307617 35.1321332,56.8262817 35.1497397,55.5124512 C35.1673462,54.1986206 35.1705919,36.9027716 35.1497397,35.6246338 C35.1288876,34.3464959 34.1817474,33.5307617 33.0817744,33.5307617 Z" id="Combined-Shape" fill="#666666"></path>
                        <polygon id="Path-3" fill="#666666" points="7.00476074 31.0386963 12.0029297 26.9735107 20.0126953 26.9735107 20.0126953 63.0007324 12.0029297 63.0007324 12.0029297 35.9597168 7.00476074 40.0646973"></polygon>
                        <path d="M34.250293,15.3 L34.250293,13.4490234 L32.4850098,13.4490234 L32.4850098,11.4152344 L33.9875,11.4152344 L33.9875,9.65566406 L32.4850098,9.65566406 L32.4850098,7.90180664 L34.090332,7.90180664 L34.090332,6.05083008 L30.0798828,6.05083008 L30.0798828,15.3 L34.250293,15.3 Z M37.0438965,15.3 L37.0438965,9.19863281 L37.9293945,15.3 L39.420459,15.3 L40.2602539,9.05581055 L40.2602539,15.3 L42.3625977,15.3 L42.3625977,6.05083008 L39.2262207,6.05083008 L38.6777832,10.3697754 L38.3464355,8.01606445 C38.2436035,7.26196289 38.1464844,6.60688477 38.0550781,6.05083008 L38.0550781,6.05083008 L34.9415527,6.05083008 L34.9415527,15.3 L37.0438965,15.3 Z M47.4984863,15.3 L47.4984863,13.4490234 L45.7332031,13.4490234 L45.7332031,11.4152344 L47.2356934,11.4152344 L47.2356934,9.65566406 L45.7332031,9.65566406 L45.7332031,7.90180664 L47.3385254,7.90180664 L47.3385254,6.05083008 L43.3280762,6.05083008 L43.3280762,15.3 L47.4984863,15.3 Z M50.594873,15.3 L50.594873,11.5673342 C50.9262207,11.5673342 51.1309326,11.6263674 51.2090088,11.7444338 C51.287085,11.8625002 51.326123,12.169092 51.326123,12.6642092 L51.326123,15.3 L53.5598633,15.3 L53.5593675,12.6642092 C53.5560626,12.0335879 53.5362327,11.642971 53.4998779,11.4923584 C53.4598877,11.3266846 53.3580078,11.1448242 53.1942383,10.9467773 C53.0304687,10.7487305 52.7105469,10.5906738 52.2344727,10.4726074 C52.7600586,10.4230957 53.1123535,10.2745605 53.2913574,10.027002 C53.4703613,9.77944336 53.5598633,9.29575195 53.5598633,8.57592773 C53.5598633,7.78754883 53.4332275,7.21340332 53.1799561,6.85349121 C52.9266846,6.4935791 52.5991455,6.26982422 52.1973389,6.18222656 C51.7955322,6.09462891 51.0271484,6.05083008 49.8921875,6.05083008 L48.1897461,6.05083008 L48.1897461,15.3 L50.594873,15.3 Z M50.594873,9.68994141 L50.594873,7.63330078 C50.8729004,7.63330078 51.0642822,7.67900391 51.1690186,7.77041016 C51.2737549,7.86181641 51.326123,8.05415039 51.326123,8.34741211 L51.326123,8.34741211 L51.326123,8.85585938 C51.326123,9.26337891 51.2718506,9.50427246 51.1633057,9.57854004 C51.0547607,9.65280762 50.8652832,9.68994141 50.594873,9.68994141 L50.594873,9.68994141 Z M57.2960937,15.4942383 C57.9740234,15.4942383 58.5443604,15.3437988 59.0071045,15.0429199 C59.4698486,14.742041 59.7688232,14.3916504 59.9040283,13.991748 C59.994165,13.7251465 60.0617676,13.3423828 60.1068359,12.843457 L57.701709,12.843457 C57.6833008,13.2267904 57.6556885,13.4641602 57.6188721,13.5555664 C57.5636475,13.6926758 57.4465332,13.7612305 57.2675293,13.7612305 C57.0809082,13.7612305 56.9609375,13.6926758 56.9076172,13.5555664 C56.8542969,13.418457 56.8276367,13.2928711 56.8276367,12.843457 L56.8276367,8.54736328 C56.8276367,8.07890625 56.8542969,7.9541748 56.9076172,7.81325684 C56.9609375,7.67233887 57.0866211,7.60187988 57.284668,7.60187988 C57.4598633,7.60187988 57.5731689,7.65996094 57.624585,7.77612305 C57.6588623,7.85356445 57.6845703,8.07915039 57.701709,8.45288086 L60.1068359,8.45288086 C60.0585937,7.95283203 59.9862305,7.56633301 59.8897461,7.29338379 C59.7450195,6.88395996 59.4422363,6.54213867 58.9813965,6.26791992 C58.5205566,5.99370117 57.9359375,5.8565918 57.2275391,5.8565918 C56.7057617,5.8565918 56.2439697,5.9451416 55.8421631,6.12224121 C55.4403564,6.29934082 55.1261475,6.54213867 54.8995361,6.85063477 C54.6729248,7.15913086 54.5367676,7.48000488 54.4910645,7.81325684 C54.4453613,8.14650879 54.4225098,8.64638672 54.4225098,9.31289063 L54.4225098,12.0150879 C54.4225098,12.9215332 54.4967773,13.600415 54.6453125,14.0517334 C54.7938477,14.5030518 55.0966309,14.8562988 55.5536621,15.1114746 C56.0106934,15.3666504 56.5915039,15.4942383 57.2960937,15.4942383 Z M65.1398926,15.3 L65.1398926,13.4490234 L63.3746094,13.4490234 L63.3746094,11.4152344 L64.8770996,11.4152344 L64.8770996,9.65566406 L63.3746094,9.65566406 L63.3746094,7.90180664 L64.9799316,7.90180664 L64.9799316,6.05083008 L60.9694824,6.05083008 L60.9694824,15.3 L65.1398926,15.3 Z" id="EMERCE" fill="#999999" fill-rule="nonzero"></path>
                        <rect id="Rectangle" stroke="#666666" x="0.5" y="20.5" width="71" height="49"></rect>
                        <rect id="Rectangle" stroke="#666666" x="0.5" y="69.5" width="58" height="25"></rect>
                        <rect id="Rectangle" stroke="#666666" x="23.5" y="0.5" width="48" height="20"></rect>
                    </g>
                </g>
            </g>
        </g>
    </g>
</svg>