<?xml version="1.0" encoding="UTF-8"?>
<svg width="96px" height="95px" viewBox="0 0 96 95" version="1.1" xmlns="http://www.w3.org/2000/svg" xmlns:xlink="http://www.w3.org/1999/xlink">
    <title>gofastforward</title>
    <g id="Symbols" stroke="none" stroke-width="1" fill="none" fill-rule="evenodd">
        <g id="Footer" transform="translate(-953.000000, -754.000000)" fill="#666666">
            <g id="Certifiicates" transform="translate(390.000000, 689.000000)">
                <g id="logos" transform="translate(148.000000, 65.000000)">
                    <path d="M463.160388,5.08610243e-05 C489.352544,0.0380314407 510.534559,21.2826482 510.505007,47.4842562 C510.475394,73.610005 489.252503,94.8108002 463.127368,94.8125187 C436.970932,94.8142372 415.772715,73.6055861 415.762523,47.4242317 C415.752216,21.2237284 437.002233,-0.037950473 463.160388,5.08610243e-05 Z M463.1529,0.59072714 C437.380915,0.555174902 416.339694,21.5948 416.339694,47.3993136 C416.339694,73.1870104 437.220973,94.178886 463.073113,94.224254 C488.879468,94.2694751 509.826908,73.3582459 509.92501,47.4471858 C509.951499,21.65016 488.965638,0.626369587 463.1529,0.59072714 Z M465.905937,83.3767865 L465.905937,89.4863952 C465.536093,89.3561581 465.218295,89.244456 464.900497,89.132754 C464.913385,89.0748163 464.926151,89.0170013 464.93904,88.9591863 C464.801929,89.0761665 464.673656,89.20579 464.526356,89.3079175 C463.886341,89.7510431 463.031145,89.5154868 462.933559,88.7613142 C462.806882,87.7817735 462.807373,86.7672493 462.906677,85.7832896 C462.97468,85.1092724 463.667355,84.8242481 464.329221,85.0394279 C464.500702,85.0951562 464.665554,85.1716291 464.89841,85.2645504 L464.89841,83.3767865 L465.905937,83.3767865 Z M460.194687,84.7958684 C461.220259,84.8903855 461.702542,85.3499595 461.685111,86.2865378 C461.673941,86.8979529 461.628401,87.5142779 461.531552,88.1177142 C461.389531,89.0040881 460.736258,89.42205 459.767765,89.310348 C458.731514,89.1910355 458.325459,88.678802 458.378241,87.321684 C458.408437,87.0366598 458.439247,86.5247945 458.521367,86.0212763 C458.66572,85.1346569 459.263633,84.7100666 460.194687,84.7958684 Z M452.427077,83.2328751 C452.894507,83.4707635 453.406127,83.6219908 453.97102,83.8414669 C453.899457,84.0745681 453.826298,84.3133158 453.743688,84.5823826 C453.523353,84.536597 453.350767,84.5006314 453.144793,84.4577919 C453.109932,84.6036182 453.078754,84.7366787 453.046471,84.8694936 C452.80134,85.8776349 452.114312,86.2793938 451.115868,85.9937558 C450.959239,85.949075 450.811817,85.8489115 450.655066,85.8361455 C450.541277,85.8268166 450.419264,85.9192469 450.300934,85.9661372 C450.35433,86.0815217 450.377161,86.2559487 450.4664,86.3019797 C450.809853,86.4789844 451.17712,86.6090989 451.530515,86.7678139 C452.189434,87.0635174 452.382028,87.4640488 452.202937,88.1416258 C451.992912,88.9360603 451.644672,89.2520174 450.908912,89.114047 C450.276752,88.9955938 449.66681,88.7407659 449.059323,88.5138022 C448.410224,88.271372 448.806214,87.8942857 448.928227,87.5505872 C449.487964,87.7749732 450.001793,88.0205949 450.541646,88.1758729 C450.733135,88.2311102 450.98784,88.0662577 451.213699,88.0018142 C451.084689,87.8126573 450.995573,87.5580749 450.817464,87.4490734 C450.508258,87.2597937 450.134731,87.1797611 449.804658,87.020064 C449.079577,86.6693688 449.002367,85.9900734 449.566278,85.4262851 C449.735059,85.2576273 449.862841,84.9717439 449.873398,84.7333644 C449.944224,83.136885 451.009567,82.511231 452.427077,83.2328751 Z M469.696477,83.4680385 C469.770495,83.8539628 469.834448,84.1875958 469.910061,84.5817443 C470.246027,84.5488474 470.561125,84.5179146 470.949381,84.4796167 C470.99443,84.7405821 471.037024,84.9869402 471.086492,85.2734375 C470.723522,85.3537156 470.412598,85.4227008 470.03097,85.5071524 C470.15065,86.2461042 470.217917,86.9749904 470.39664,87.6753988 C470.574259,88.3711428 471.116566,87.9558814 471.520166,87.9472889 C471.893324,88.7010933 471.832932,88.8204058 471.007687,88.9533434 C470.046191,89.1080078 469.581707,88.7997839 469.39255,87.8366916 C469.255316,87.1381245 469.158957,86.4317013 469.036822,85.6826842 C468.820414,85.6664812 468.662313,85.6546973 468.495128,85.6422996 C468.450325,85.3987647 468.410309,85.1806389 468.361209,84.9137816 C469.26354,84.8376769 468.803598,84.1065811 468.974097,83.6099368 C469.191118,83.5673428 469.421641,83.5219255 469.696477,83.4680385 Z M456.191103,84.1818388 C457.059679,84.3778697 457.453582,84.8452996 457.430259,85.9386291 C457.32629,86.3838413 457.207101,87.1111319 456.980873,87.8034388 C456.740653,88.5383398 456.148387,88.7774557 455.232798,88.6227914 C454.415778,88.484821 453.888815,87.9971374 453.948225,87.2564672 C454.009477,86.4929656 454.156777,85.7217308 454.383618,84.9902668 C454.618315,84.2336391 455.298715,83.9806525 456.191103,84.1818388 Z M464.32787,85.9098443 C464.129753,85.9374629 463.900457,86.2280109 463.81576,86.4501874 C463.727503,86.6821839 463.79612,86.9738366 463.79612,87.2393437 C463.788509,87.2397119 463.780653,87.2402029 463.773043,87.2405712 C463.795629,87.56598 463.789,87.8970353 463.848411,88.2156929 C463.92157,88.6086139 464.200211,88.7528445 464.513222,88.4943341 C464.727911,88.3168384 464.926397,88.0269042 464.972305,87.7598014 C465.043868,87.3441717 464.979179,86.9050969 464.973164,86.4758421 C464.967149,86.0472009 464.652788,85.8646725 464.32787,85.9098443 Z M459.471448,86.4389927 C459.433764,86.8427156 459.386996,87.2454566 459.352994,87.6494251 C459.31887,88.0559713 459.417315,88.4004062 459.891987,88.4433685 C460.356103,88.4853489 460.536545,88.1846127 460.580734,87.771438 C460.623942,87.3679606 460.663959,86.9641148 460.705325,86.5605146 C460.742764,86.1143204 460.676847,85.7061784 460.131962,85.6702128 C459.619361,85.636334 459.510236,86.023854 459.471448,86.4389927 Z M475.15366,84.6356681 C475.399528,85.3416002 475.549527,86.081043 475.678783,86.5687266 C475.670067,87.5577189 475.227065,88.054486 474.412376,88.2399604 C473.542451,88.4378325 472.905381,88.2041176 472.640734,87.4671298 C472.395357,86.7837836 472.212092,86.064349 472.11512,85.3454055 C472.002068,84.5070267 472.462747,84.0244986 473.417615,83.808214 C474.255994,83.6183206 474.892327,83.8856689 475.15366,84.6356681 Z M480.791518,81.2762487 C480.894996,81.4909375 480.998229,81.7052581 481.118523,81.955176 C480.939063,82.0785392 480.779489,82.1885227 480.591437,82.3180234 C480.632558,82.4030887 480.67061,82.4913456 480.716764,82.574938 C481.296387,83.6287421 481.021796,84.4046414 479.901217,84.8693708 C479.807804,84.9080369 479.680513,84.9045999 479.618034,84.9685524 C479.533705,85.0550907 479.49688,85.1879057 479.439679,85.3008352 C479.553222,85.3554587 479.683582,85.4767351 479.777362,85.4531672 C480.191151,85.3485847 480.590946,85.1893786 481.002647,85.0744852 C481.603874,84.9065639 481.986116,85.0827094 482.264144,85.627717 C482.645772,86.3752611 482.642826,86.8595078 482.07916,87.1942455 C481.373228,87.6135577 480.588859,87.9004231 479.752199,88.2840152 C479.596307,87.8498504 479.509155,87.6072974 479.435751,87.4027968 C480.015128,87.2032062 480.567623,87.0528381 481.07912,86.8144587 C481.255757,86.7319711 481.330511,86.4303757 481.451788,86.228821 C481.229488,86.1751795 480.995037,86.0488703 480.787959,86.0839767 C480.430881,86.1444922 480.096388,86.3266524 479.742256,86.4196965 C478.973476,86.6214966 478.461734,86.1465789 478.534033,85.3603686 C478.552446,85.1616373 478.483583,84.9000582 478.356537,84.7511631 C477.276342,83.4851252 477.65662,82.281444 479.263656,81.8566081 C479.770979,81.722443 480.251053,81.4850455 480.791518,81.2762487 Z M455.949901,85.0690719 C455.743068,85.041085 455.365245,85.27971 455.288281,85.4851926 C455.098633,85.9921478 454.981408,86.5446431 454.953789,87.0848635 C454.942496,87.3054443 455.203216,87.6799528 455.403911,87.7304029 C455.591104,87.7772932 455.990899,87.5381772 456.072159,87.3351496 C456.272364,86.8343318 456.343435,86.2819593 456.508165,85.5695214 C456.357674,85.4232041 456.17355,85.0992683 455.949901,85.0690719 Z M473.547484,84.7105453 C473.356486,84.7628366 473.099694,85.115373 473.122034,85.3069849 C473.19016,85.8872216 473.334391,86.4708952 473.546625,87.0150436 C473.618801,87.2001498 473.996133,87.3894294 474.206771,87.3626701 C474.414095,87.3364017 474.586803,87.0387342 474.755584,86.8781779 C474.560535,86.1772785 474.43975,85.5738422 474.209349,85.0155777 C474.136681,84.8398005 473.735413,84.6591133 473.547484,84.7105453 Z M443.321707,79.1584523 C443.671665,79.3724046 444.271787,79.2935995 444.011559,79.918517 C444.408408,79.9557101 444.856443,79.8867249 445.17375,80.0589424 C445.478537,80.2245314 445.647809,80.6397928 445.768717,81.0305043 C445.802841,81.042411 445.843472,81.0727301 445.870231,81.0634012 C446.423094,80.8711755 446.982832,80.7977713 447.389992,81.3086546 C447.793224,81.8145051 447.590565,82.3597582 447.322971,82.8604532 C446.889788,83.6712134 446.437333,84.4716626 445.991139,85.275426 C445.962538,85.326858 445.917735,85.3694521 445.852432,85.4512032 C445.578333,85.2964162 445.3197,85.1504671 445.014544,84.9782496 C445.457915,84.1747316 445.892571,83.4152807 446.29654,82.6401179 C446.443962,82.3573032 446.755009,82.0310351 446.321335,81.7301762 C446.008815,81.5132779 445.505911,81.7215837 445.260534,82.1600448 C444.852392,82.8892993 444.454193,83.6242003 444.012418,84.4287003 C443.704808,84.2629885 443.456731,84.1295598 443.13525,83.9564831 C443.554685,83.1884398 443.973752,82.451452 444.36029,81.6977704 C444.521705,81.3831635 444.910207,81.0298906 444.416386,80.6891381 C444.090241,80.4642611 443.621829,80.708287 443.342574,81.2107005 C442.946953,81.9222791 442.557223,82.6370492 442.130423,83.413194 C441.833247,83.244659 441.575964,83.0989554 441.262953,82.9217052 C441.954155,81.6581223 442.627068,80.42805 443.321707,79.1584523 Z M450.890254,84.6485445 C450.798437,85.0568092 451.105802,85.1791904 451.430474,85.2031266 C452.00752,85.2455979 452.013903,84.7607375 452.205637,84.2340196 C452.017708,84.1095517 451.815171,83.87375 451.58563,83.8437991 C451.018773,83.7696584 450.974951,84.2717037 450.890254,84.6485445 Z M483.261643,79.5954772 C483.511069,80.0377435 483.66512,80.3108611 483.834269,80.610738 C483.686233,80.7311552 483.554891,80.8213761 483.443435,80.9316051 C483.095194,81.2759173 482.936234,81.6388874 483.224081,82.12608 C483.616389,82.7902773 483.961805,83.4824615 484.358777,84.2214133 C484.076699,84.3798828 483.818311,84.5252182 483.491552,84.7087286 C482.803787,83.4461277 482.12756,82.2046397 481.42752,80.9195756 C481.799451,80.7525136 482.07797,80.2115568 482.462666,80.8213761 L482.709034,80.4434032 C482.874845,80.1889845 483.048877,79.921909 483.261643,79.5954772 Z M478.777691,83.3239552 C478.838697,83.6688811 478.88927,84.1827104 479.409114,84.1331196 C479.659032,84.1091834 479.883418,83.8190037 480.24467,83.5592659 C479.893606,83.1803383 479.701012,82.7945367 479.428508,82.7255516 C479.122003,82.6480966 478.698886,82.8788656 478.777691,83.3239552 Z M487.221552,78.7511696 C487.483377,79.061112 487.69426,79.4141395 487.974006,79.8129524 C487.368238,80.2199896 486.811569,80.5940072 486.260792,80.9638513 C486.547781,81.7202335 486.865702,81.8278848 487.490128,81.3836545 C487.768524,81.1855369 488.024702,80.9559954 488.326911,80.7116012 C488.488572,80.9305862 488.630593,81.1230574 488.822451,81.3831635 C488.497287,81.6663465 488.200725,81.9695376 487.860709,82.2118451 C486.895653,82.8998558 486.195612,82.7761243 485.518649,81.8119273 C485.213985,81.3777625 484.906375,80.9404062 484.655475,80.4746948 C484.231007,79.686766 484.428511,79.0460138 485.199746,78.5358671 C485.962634,78.0312441 486.666848,78.0943373 487.221552,78.7511696 Z M441.274602,77.4639084 C442.062653,78.0338341 442.266908,78.7026959 441.805493,79.4578505 C441.467441,80.0112051 441.077834,80.5434467 440.643301,81.0236426 C440.403694,81.2882904 440.023907,81.4257698 439.832418,81.5437321 C438.937207,81.4904588 438.409016,81.1348536 438.048991,80.5517937 C437.705784,79.9959842 437.862412,79.4475396 438.212985,78.9526138 C438.542199,78.4877616 438.873009,78.0188587 439.253655,77.5974598 C439.833769,76.9554801 440.535527,76.929089 441.274602,77.4639084 Z M439.978858,78.3058469 C439.611469,78.7083424 439.298335,79.1632518 438.987657,79.6139878 C438.768181,79.9323999 438.808565,80.2978251 439.159138,80.4382505 C439.376159,80.5252798 439.781723,80.4585041 439.944857,80.2991753 C440.31777,79.9349777 440.599602,79.4756492 440.905249,79.0455351 C440.984054,78.9345696 441.014127,78.7887433 441.066541,78.6587516 L441.286754,78.4088337 C441.064823,78.3070744 440.849029,78.1444314 440.61912,78.1212317 C440.408973,78.1001188 440.109832,78.1624755 439.978858,78.3058469 Z M485.490294,79.509393 C485.466849,79.7887708 485.603101,80.0817738 485.694181,80.4530909 C486.117666,80.1669619 486.399867,79.976332 486.819793,79.6925352 C486.481741,79.4681492 486.25085,79.2403262 485.978223,79.1664311 C485.846636,79.130711 485.50171,79.3728956 485.490294,79.509393 Z M490.856728,76.8499033 C491.340361,77.426703 491.815647,78.0104994 492.32383,78.6264562 C491.97068,78.8081254 491.844739,79.4227319 491.279355,78.9361531 C491.154028,79.5846385 491.008569,80.2228129 490.192777,80.2563235 C489.672442,80.2776819 488.9384,79.6915532 488.74912,79.0781742 C488.454767,78.1237972 489.131853,77.6714654 489.818391,77.2224479 C489.542573,76.8096415 489.274979,76.5260902 488.824734,76.9180293 C488.536641,77.1688064 488.27678,77.4523576 487.976535,77.7484293 C487.792779,77.53595 487.636028,77.3544036 487.463442,77.1546902 C487.540161,77.0405332 487.59638,76.9337412 487.673467,76.8453616 C488.988359,75.334684 489.586885,75.3350523 490.856728,76.8499033 Z M490.26348,77.8288302 C490.055911,78.0510067 489.688276,78.2710965 489.68533,78.495728 C489.682507,78.7249013 490.038112,78.9588617 490.236721,79.1904899 C490.434593,79.0127487 490.632465,78.8351303 490.918717,78.5778474 C490.632342,78.2504746 490.447973,78.0397138 490.26348,77.8288302 Z M485.974062,25.7471809 C496.333134,36.6618171 497.53166,53.3233374 488.777905,65.6406316 C479.80897,78.2605032 464.128832,81.6589447 451.900286,76.800644 L451.907282,76.6200795 C452.284491,76.6200795 452.69607,76.5194249 453.034122,76.6345639 C470.379603,82.5454413 488.887152,72.3563771 493.175772,54.5196536 C497.113452,38.1425438 486.930403,21.4457945 470.561886,17.4135976 C464.621917,15.950424 458.774624,16.2580342 452.9876,18.1885149 C452.671766,18.2938339 452.290138,18.2021401 451.939197,18.1315591 C460.741561,14.2740347 475.459712,14.6689197 485.974062,25.7471809 Z M437.689606,74.7529498 C438.39652,75.0946843 438.42242,75.1436613 438.237559,75.6605593 C438.645701,75.7576541 439.060717,75.8562219 439.626224,75.9907553 C439.262026,76.3876043 439.056912,76.6113766 438.825652,76.8632584 C438.67467,76.7656726 438.548729,76.6706646 438.411004,76.5979969 C437.964442,76.3628089 437.565874,76.3705421 437.207569,76.7912045 C436.705278,77.3811384 436.176719,77.9486091 435.623732,78.5656707 C435.374796,78.3459491 435.152252,78.1494273 434.872383,77.9023326 C435.829706,76.8320801 436.762602,75.789078 437.689606,74.7529498 Z M491.979456,72.9463601 C492.164808,73.1363763 492.333957,73.3098213 492.533547,73.5144446 C492.286698,73.8000826 492.066117,74.0555242 491.777165,74.3900165 C492.294431,74.8801551 492.795863,75.3578959 493.300486,75.8326908 C493.599504,76.1140326 493.879863,76.0846955 494.140951,75.7726664 C494.24492,75.6483212 494.35785,75.5313409 494.521966,75.3497945 C494.731745,75.5476666 494.906908,75.7128874 495.074093,75.8706204 C494.371966,77.2576893 493.479455,77.4249968 492.432402,76.3827312 C491.998973,75.9512668 491.592182,75.4931658 491.171274,75.0451303 C490.949343,75.1927979 490.818001,75.27995 490.608222,75.4193934 C490.465833,75.230973 490.320375,75.0386246 490.141529,74.8022091 C490.208059,74.7051143 490.306013,74.562234 490.422257,74.392717 C490.217511,74.1043785 490.0081,73.809166 489.749099,73.4443547 C489.949549,73.2855169 490.139565,73.1349033 490.370702,72.9517611 C490.608222,73.1696414 490.870783,73.4103531 491.160595,73.6761056 L491.697083,73.1980465 C491.788158,73.1168727 491.881543,73.033635 491.979456,72.9463601 Z M438.662309,73.1249728 L438.275376,73.4259 C438.208368,73.4780003 438.140583,73.5307007 438.072744,73.5834421 C437.373072,72.8851204 437.261615,72.8772644 436.678064,73.5298006 C436.821681,73.7109788 436.96984,73.8982944 437.187597,74.173376 C436.978187,74.3070501 436.757483,74.4478437 436.502655,74.610364 C436.383097,74.5092185 436.186575,74.3431385 435.971027,74.1607328 C435.144801,74.9447335 434.334041,75.7140044 433.481914,76.5228006 C433.241448,76.2930136 433.025409,76.0867945 432.82324,75.8937096 C433.647012,75.0208382 434.412846,74.2093415 435.215136,73.3593016 C435.155725,73.2714129 435.057894,73.1263231 434.946438,72.9609796 C435.126266,72.7888848 435.300938,72.6217001 435.497092,72.4340162 C435.65507,72.5420357 435.797828,72.6394987 435.930888,72.7303333 C437.258915,71.7744833 437.841852,71.844696 438.662309,73.1249728 Z M485.511738,36.5276397 L485.511738,54.6342893 C485.511738,57.687191 484.488253,59.229047 481.652004,60.4386201 C472.638266,64.2821511 463.623792,68.1239636 454.610054,71.9678628 C452.432355,72.8964625 450.258831,73.8351276 448.077819,74.7557485 C447.762475,74.8889316 447.419881,75.0007564 447.082075,75.0289888 C446.178148,75.1048479 445.602207,74.6102904 445.497257,73.7127463 C445.464114,73.4293178 445.456013,73.1415931 445.455767,72.8559551 C445.453435,68.0898392 445.49652,63.3232323 445.434532,58.5579757 C445.407159,56.4502448 446.744146,54.917595 448.27925,54.2696007 C459.337626,49.6014388 470.374153,44.8814767 481.417307,40.1773493 C482.5563,39.6922434 483.626552,39.0863521 484.442713,38.1406903 C484.848646,37.6704371 485.138457,37.1001431 485.511738,36.5276397 Z M441.98931,24.0313154 C442.090088,24.0821336 442.190865,24.1329519 442.291642,24.1837702 C442.1058,24.506233 441.981086,24.8912981 441.725031,25.142198 C436.579128,30.1848684 433.38531,36.2545835 432.521154,43.4022844 C431.285558,53.6215449 434.459491,62.3816826 441.721717,69.6721411 C441.976422,69.9277055 442.105063,70.3088425 442.292502,70.6314281 C442.203385,70.6802824 442.114392,70.7290139 442.025276,70.777991 C436.022459,65.2082344 432.451678,58.3639702 431.786621,50.1580462 C430.948856,39.8213145 434.537682,31.1407184 441.98931,24.0313154 Z M428.220749,62.9693334 C428.853768,62.9444152 429.378522,63.4292756 429.390061,64.0498968 C429.401599,64.6712546 428.895503,65.1799283 428.265307,65.180174 C427.665063,65.1805421 427.178361,64.699978 427.166209,64.0950686 C427.153934,63.4814441 427.611176,62.9933923 428.220749,62.9693334 Z M498.807162,62.9696034 C499.41784,62.9783186 499.88036,63.4470988 499.885147,64.0619508 C499.89018,64.699757 499.398077,65.1932098 498.770705,65.1795846 C498.168496,65.1664504 497.685968,64.6845361 497.676025,64.085887 C497.665837,63.4717714 498.18384,62.9606427 498.807162,62.9696034 Z M504.44297,53.2557147 C504.471816,53.3497408 504.500785,53.4436441 504.529631,53.5377929 C503.330982,53.8246584 502.132334,54.1116467 500.849725,54.418643 C501.861794,55.2661053 503.007906,55.8042389 503.859296,56.7203181 C502.050706,55.8541979 500.699602,54.1266221 498.44494,54.1728986 C498.461143,54.1046499 498.477346,54.0364012 498.493549,53.9681525 C498.608811,53.9456894 498.740766,53.8748629 498.836388,53.9083736 C500.262491,54.4066136 501.613595,53.9384472 502.976114,53.6059189 C503.464411,53.4867292 503.954059,53.3722039 504.44297,53.2557147 Z M428.194591,53.9193351 C428.365213,54.9368053 428.050484,55.6059126 427.14717,55.8449058 C426.085265,56.1258793 424.994145,56.2962556 424.194309,56.4582848 C423.004867,56.4557071 422.470048,55.9762477 422.298935,55.0179427 C422.103395,53.9224038 422.373198,53.2222409 423.258713,52.9863165 C424.338908,52.6985917 425.450773,52.4878309 426.562269,52.3713417 C427.483258,52.2747379 428.017096,52.8608665 428.194591,53.9193351 Z M426.500035,52.6768651 C425.471149,52.807225 424.445209,53.0030104 423.438664,53.2537875 C422.673321,53.4445402 422.390138,54.0533775 422.54517,54.8883193 C422.706709,55.7586129 423.131422,56.1369268 424.214931,56.1291935 C424.971927,55.9843492 426.004005,55.8294394 427.012882,55.5801352 C427.793446,55.3875413 428.090132,54.7557499 427.925279,53.8915937 C427.769387,53.0745733 427.261696,52.5805068 426.500035,52.6768651 Z M499.180332,47.6104917 C501.066623,47.7121283 502.952914,47.8137648 504.825457,47.9146649 C505.032658,48.3536169 504.77427,48.4910963 504.469729,48.6244022 C503.011343,49.2636814 501.556148,49.9099573 500.100462,50.5551284 C499.938556,50.6269369 499.780332,50.7074605 499.630577,50.9084014 C501.321083,51.0127384 503.011834,51.11683 504.702462,51.2210442 C504.717315,51.26818 504.732045,51.3153158 504.74702,51.3624516 C504.6336,51.4136381 504.517601,51.5145382 504.407495,51.5086462 C502.614126,51.4100784 500.82137,51.2980082 499.028491,51.1890066 L498.878246,51.0052507 L498.878246,51.0052507 C499.057337,50.8397844 499.209056,50.6146619 499.419694,50.5184264 C500.849479,49.8651537 502.291785,49.2394998 503.729304,48.6035348 C503.923003,48.517733 504.113019,48.4238296 504.278731,48.2005484 C502.57325,48.0971933 500.867769,47.9938383 499.162165,47.8904832 L499.180332,47.6104917 L499.180332,47.6104917 Z M421.946521,48.1483185 C421.994762,48.9006499 422.043002,49.6529813 422.09824,50.5141915 C422.90544,50.4784714 423.683303,50.4442243 424.46534,50.4097317 L424.46534,48.5994227 C424.53764,48.5959857 424.610062,48.5925488 424.682361,48.5891118 C424.706052,48.9352652 424.7689,49.2842419 424.745086,49.6272039 C424.701387,50.2544536 424.939644,50.463496 425.564562,50.3621049 C426.066239,50.280722 426.583873,50.2931197 427.094756,50.2763031 C427.252121,50.2711476 427.410836,50.3069904 427.568937,50.3241753 L427.563168,50.5386186 L427.563168,50.5386186 C425.673931,50.6419737 423.784694,50.7454515 421.834451,50.8521208 C421.784001,49.9075637 421.737725,49.042671 421.691448,48.1777783 C421.776513,48.1679584 421.861579,48.1581384 421.946521,48.1483185 Z M498.869739,42.4963811 C499.019248,42.5037461 499.173912,42.4886479 499.317161,42.5220357 C501.004843,42.9144658 502.691912,43.3091053 504.374684,43.7211752 C504.517442,43.7561588 504.674807,43.9005121 504.733972,44.0343091 C504.761836,44.0971568 504.596247,44.3120911 504.477548,44.3632776 C502.755496,45.1050526 501.026815,45.8311156 499.298503,46.5580379 C499.269902,46.5701901 499.226817,46.5480952 499.065525,46.5205993 C499.203495,46.3733 499.276408,46.246377 499.386023,46.1883165 C499.618879,46.0648306 499.863764,45.9528831 500.11626,45.8800926 C500.524279,45.7623759 500.651448,45.5362714 500.579639,45.1114355 C500.495065,44.6107405 500.472847,44.0977705 500.450261,43.588974 C500.432831,43.1961758 500.258895,43.0136473 499.864869,42.96332 C499.51221,42.9183937 499.16888,42.799695 498.821376,42.7136477 C498.837456,42.6411027 498.853659,42.5686805 498.869739,42.4963811 Z M421.875572,43.4344693 C421.943575,43.4366788 422.011456,43.4388883 422.079336,43.440975 L422.079336,45.8585256 C422.772748,45.9039429 423.461004,45.9675271 424.149874,45.9740328 C424.252984,45.9750148 424.427288,45.7187139 424.450119,45.5640496 C424.516281,45.1154003 424.521928,44.6577904 424.551388,44.2037401 C424.606748,44.2054586 424.66223,44.2071771 424.71759,44.2088956 L424.71759,46.0047202 C425.666444,46.0776333 426.564847,46.1467413 427.46325,46.2157265 C427.458463,46.2964956 427.453676,46.3772648 427.448889,46.4580339 C425.565053,46.4240323 423.685267,46.263967 421.71698,46.1449 C421.771849,45.2078307 421.823649,44.3212114 421.875572,43.4344693 Z M500.699688,43.1593509 C500.771619,43.9939245 500.83324,44.7095538 500.905294,45.5451094 C502.124687,45.0349626 503.218384,44.5772299 504.312082,44.1196199 C504.303858,44.0723614 504.295511,44.0253483 504.287287,43.9780898 C503.121535,43.7120917 501.955783,43.4459709 500.699688,43.1593509 Z M447.692459,19.899225 C449.285501,20.5316302 450.853503,21.2274968 452.430465,21.9002866 C460.971372,25.5444725 469.513998,29.1841166 478.047418,32.8458557 C478.714561,33.1322301 479.367711,33.5089482 479.93334,33.9611572 C480.813945,34.6651254 480.850279,35.5759263 480.013005,36.3221203 C479.459159,36.8158186 478.805273,37.2508427 478.123031,37.5385674 C472.030853,40.1080818 465.923699,42.6421215 459.813845,45.1690419 C459.583321,45.2644182 459.244042,45.2633134 459.013641,45.1673234 C455.282672,43.61442 451.546301,42.0726868 447.844545,40.452394 C446.239719,39.7500216 445.455227,38.3947448 445.441111,36.6420054 C445.421226,34.1477364 445.436078,31.6532219 445.435956,29.1588302 C445.435833,26.7666888 445.435342,24.3744246 445.436569,21.9822832 C445.436692,21.7576517 445.435219,21.53167 445.4567,21.3085115 C445.582396,20.0028255 446.471102,19.4144874 447.692459,19.899225 Z M422.208739,41.2952163 L427.874363,42.1054855 L427.834101,42.4022937 C425.947442,42.1308946 424.060783,41.8593728 422.174246,41.587851 C422.185785,41.4903879 422.1972,41.3928021 422.208739,41.2952163 Z M503.953285,38.1203384 C504.008645,38.562482 504.154226,38.9932098 504.214251,39.4352306 C504.34056,40.3637075 503.945429,40.9497134 503.077222,41.1783956 C501.982052,41.4668569 501.218427,41.1894431 500.890441,40.30221 C500.703371,39.7963595 500.644574,39.2432505 500.511513,38.6361316 C499.751449,38.7758205 498.971008,38.9193146 498.190689,39.062686 C498.171172,39.0051165 498.151532,38.947547 498.132015,38.8899775 C498.253169,38.8256568 498.367326,38.7288075 498.496213,38.7020481 C500.110614,38.3654691 501.729065,38.0471798 503.342116,37.7039723 C503.728531,37.6217301 503.902221,37.7130557 503.953285,38.1203384 Z M503.626158,38.0074089 C503.477754,38.0163696 503.417116,38.0134237 503.359178,38.0247166 C502.859956,38.1221797 502.360734,38.2202565 501.862371,38.321893 C500.737495,38.5513118 500.730376,38.563955 500.995392,39.7159586 C501.221251,40.6979543 501.810448,41.1290504 502.691789,40.9572011 C503.729759,40.7546645 504.092115,40.2292968 503.905167,39.1594126 C503.839374,38.78294 503.726322,38.4146916 503.626158,38.0074089 Z M423.193889,36.4440473 L423.376418,36.514751 C423.264225,36.917983 423.124658,37.3160594 423.045976,37.7256744 C422.894012,38.5169174 423.125886,38.9645846 423.888774,39.1811147 C424.888936,39.4650342 425.906038,39.6985036 426.926823,39.897235 C427.632755,40.0344689 428.064219,39.7167933 428.304808,38.9892573 C428.374653,38.77776 428.406199,38.5530057 428.449039,38.3331614 C428.48881,38.1291518 428.520479,37.9236693 428.661641,37.7392996 C428.749529,38.4599616 428.692574,39.1674895 428.241838,39.7649111 C427.870398,40.2573819 427.326986,40.3274719 426.745031,40.1881512 C425.89229,39.9838961 425.034394,39.8002629 424.184109,39.5866789 C422.810665,39.2418757 422.466721,38.6207634 422.877809,37.2419188 C422.959192,36.9688012 423.087343,36.7096771 423.193889,36.4440473 Z M501.46276,30.9441106 C501.825853,31.2647322 501.65695,31.4824897 501.371312,31.7203782 C500.382688,32.5441498 499.403884,33.3798281 498.423238,34.2130514 C498.257158,34.3540905 498.100162,34.5058088 497.809,34.7709477 L498.778675,34.7709937 C499.076879,34.771009 499.356318,34.771009 499.635757,34.7709477 C500.616403,34.7707022 501.597539,34.754622 502.577571,34.7835909 C502.771883,34.7893601 502.96104,34.967715 503.152529,35.0665283 C503.138781,35.1380913 503.125033,35.2095315 503.11104,35.2810944 C501.323808,35.9510609 499.53633,36.6210275 497.749098,37.2908713 L497.64292,37.0183675 L497.64292,37.0183675 C499.202083,36.4256103 500.761124,35.832976 502.320165,35.2400961 L502.31992,35.1447198 L502.31992,35.1447198 L502.031668,35.1081404 C501.983613,35.1032168 501.93555,35.0999162 501.887473,35.0997935 C500.600322,35.096111 499.313049,35.1067902 498.026144,35.0865365 C497.843738,35.0837133 497.663542,34.9377642 497.482364,34.8580998 C497.572462,34.6980345 497.627944,34.4981984 497.758427,34.3840414 C498.649956,33.6039686 499.557566,32.8423082 500.458915,32.0732828 C500.657892,31.9035203 500.852204,31.7283569 501.048603,31.5556484 C501.015461,31.526434 500.982196,31.4972196 500.948931,31.4680053 C499.383262,32.0245513 497.817592,32.5809746 496.210556,33.1521278 C496.320049,32.7948042 496.320663,32.7963999 497.823484,32.2570388 C498.418328,32.0434547 499.008999,31.8182095 499.603597,31.6035207 C500.216362,31.3824489 500.83146,31.1677601 501.46276,30.9441106 Z M429.290155,36.3408273 C427.403128,35.719224 425.582508,35.1194702 423.761765,34.5197163 C424.425348,34.2841601 429.090687,35.8860405 429.290155,36.3408273 Z M425.601497,30.6863613 C427.375349,30.8188079 429.147851,30.970158 430.919985,31.1244541 C431.026777,31.1339058 431.127677,31.210747 431.231401,31.2561643 L431.205378,31.4001494 L431.205378,31.4001494 C430.830747,31.4001494 430.447032,31.4510904 430.083816,31.3866469 C429.67015,31.3132428 429.49646,31.4609104 429.362786,31.8273175 C429.181239,32.3249438 428.96385,32.8126274 428.721911,33.284108 C428.558163,33.6033794 428.62187,33.8016197 428.894619,34.0095573 C429.211681,34.2511283 429.499283,34.5312425 429.799651,34.7946629 C429.747605,34.8534598 429.69556,34.9121341 429.643514,34.9709311 C429.535249,34.9145891 429.410658,34.8770277 429.321296,34.7989591 C427.99683,33.6420455 426.673713,32.4834133 425.361767,31.3125063 C425.245892,31.2090285 425.209067,31.0170483 425.135663,30.8661892 C425.291186,30.8029733 425.451497,30.6751911 425.601497,30.6863613 Z M425.601374,30.9577603 L425.53288,31.0954852 C426.443067,31.8812045 427.353132,32.6670465 428.325307,33.5062846 C428.657836,32.727562 428.942614,32.0606642 429.261395,31.314102 C427.980504,31.1893886 426.790939,31.0736358 425.601374,30.9577603 Z M500.157811,28.2271373 C499.884079,28.6025051 499.684612,29.088593 499.32201,29.3309004 C498.461781,29.9059816 497.548648,30.4171104 496.611211,30.8569217 C495.694763,31.2867903 494.973733,30.943951 494.454871,29.9705478 C493.956876,29.036179 494.081958,28.2779556 494.920582,27.728038 C495.668495,27.2375312 496.463666,26.8155185 497.255768,26.3969429 C498.643819,25.6633921 500.017508,26.5313536 500.157811,28.2271373 Z M497.462724,26.6358133 C496.683387,27.0395363 495.914607,27.4684229 495.168291,27.9299609 C494.383431,28.4155577 494.252089,29.0625701 494.709822,29.8746805 C495.175287,30.7007843 495.799223,30.9502112 496.598813,30.5473475 C497.436946,30.1250894 498.266733,29.6747216 499.048401,29.1583147 C499.38854,28.9336832 499.599546,28.5135118 499.741445,28.3392075 C499.750651,26.8070488 498.582812,26.0554539 497.462724,26.6358133 Z M426.960076,27.1521098 C428.517398,28.0527226 430.07472,28.9533354 431.709375,29.8987517 C432.137402,29.1901191 432.55561,28.4976894 432.973817,27.8052597 L433.191697,27.9474036 L433.191697,27.9474036 C432.739243,28.7207251 432.286666,29.4941695 431.798982,30.3275155 C430.109213,29.3355772 428.463756,28.3697844 426.818423,27.403869 C426.865681,27.3200311 426.912817,27.2360705 426.960076,27.1521098 Z M497.125715,23.0004532 C497.338563,23.2959111 497.49826,23.6296669 497.682384,23.9458695 L497.476287,24.0731607 L497.476287,24.0731607 C497.360657,23.8914915 497.239381,23.7130138 497.130011,23.5275393 C496.396829,22.2844556 495.823589,22.1544639 494.67404,22.9846185 C494.061889,23.4266393 493.453419,23.874061 492.850965,24.3293388 C491.976375,24.9902218 491.901866,25.5767188 492.579689,26.4574461 C492.781857,26.7201299 493.008084,26.9642786 493.223264,27.2170197 C491.643724,26.6091644 491.417865,25.0326932 492.66635,24.0794209 C493.331407,23.5717291 494.004319,23.0736118 494.68742,22.5905927 C495.711518,21.8662482 496.389955,21.9799142 497.125715,23.0004532 Z M432.526653,19.3246716 C432.821988,19.5829364 433.01851,19.7547857 433.237618,19.9463976 C432.901653,20.2835903 432.58189,20.5907095 432.277594,20.9126813 C431.656605,21.5693909 431.671949,21.9044969 432.345352,22.4832606 C432.825793,22.896067 433.311759,23.3023677 433.798583,23.7074409 C434.601119,24.3750752 434.93242,24.3327267 435.526159,23.4891924 C435.607419,23.3736852 435.674686,23.248358 435.783319,23.0702485 C435.399481,22.739316 435.020185,22.4121887 434.572027,22.0257734 C434.376365,22.267958 434.20071,22.4854701 434.004679,22.7282685 C433.751447,22.5192262 433.536513,22.3418532 433.281808,22.1315834 C433.699892,21.6297836 434.086553,21.1656679 434.498991,20.6702511 C435.271699,21.320946 436.012001,21.9291695 436.72763,22.5650117 C436.822516,22.6493406 436.871002,22.9242994 436.806681,23.0265497 C436.419038,23.6428747 436.0557,24.2945516 435.561511,24.8186918 C435.019572,25.3935275 434.356479,25.4293703 433.726161,24.9532252 C432.848011,24.2897643 432.002636,23.5747488 431.203168,22.8183666 C430.64159,22.2869842 430.603046,21.6294154 431.070967,20.9812982 C431.484756,20.4079355 432.004354,19.910923 432.526653,19.3246716 Z M490.633238,15.8373718 C491.203655,16.407543 491.798008,16.9078698 492.274767,17.5025909 C492.84236,18.2106098 492.794611,19.1107315 492.176076,19.8804934 C491.691953,20.482825 491.150996,21.0502957 490.573337,21.5635112 C489.796701,22.2533631 488.953658,22.2664973 488.107668,21.6626928 C487.794289,21.4389205 487.536761,21.1380616 487.234306,20.8967361 C486.978496,20.6926038 486.694699,20.5237005 486.376533,20.307416 C487.913847,18.6930151 489.235981,17.3047188 490.633238,15.8373718 Z M437.904429,16.3991592 C438.527137,17.017571 439.114003,17.6772266 439.66527,18.3600818 C439.909419,18.6625365 440.026522,19.0676097 440.137733,19.2956782 C440.050704,20.4466998 439.428978,21.0130658 438.634911,21.4170343 C437.9674,21.7565593 437.298906,21.6010357 436.690928,20.9736632 C436.093875,20.357461 435.51057,19.7237055 434.970104,19.0580352 C434.256316,18.1787808 434.387658,17.2954758 435.294408,16.4746501 C436.196616,15.6578753 437.108276,15.6084072 437.904429,16.3991592 Z M490.707134,17.265439 C489.784303,18.2356507 488.853126,19.2148231 487.929927,20.1857713 C488.781931,21.2943216 489.399606,21.3327422 490.312985,20.3878169 C490.568181,20.1237828 490.823132,19.8593805 491.072436,19.5898227 C491.918671,18.67448 491.8298,18.0172794 490.707134,17.265439 Z M435.910733,17.186106 C435.472885,17.5845507 435.428205,18.0086501 435.825054,18.474116 C436.328081,19.0642954 436.848293,19.6412179 437.387777,20.1982549 C437.559503,20.3757506 437.815804,20.4714952 438.129552,20.6633526 C438.439985,20.3856933 438.806883,20.185489 438.958847,19.8787381 C439.069813,19.6548431 438.995918,19.2147863 438.832906,19.0032889 C438.336139,18.3582406 437.77407,17.7599597 437.203162,17.1770225 C436.78164,16.7465402 436.363187,16.7742816 435.910733,17.186106 Z M486.246738,12.5186806 C486.886508,12.9985083 487.513266,13.4157337 488.076073,13.9062405 C488.563511,14.3311991 488.827299,14.8916731 488.551604,15.5557477 C488.259951,16.2581201 487.794608,16.7685123 486.973292,16.8200671 C486.852629,16.8275548 486.731107,16.8210491 486.541582,16.8210491 C486.410854,17.7676929 486.281967,18.701939 486.15087,19.6511606 C485.464823,19.38148 485.100626,19.0302938 485.335568,18.2837316 C485.462368,17.8807452 485.42763,17.4297637 485.517606,17.011679 C485.613228,16.5669577 485.525584,16.2487911 484.984014,16.06123 C484.53917,16.6640526 484.093835,17.2673661 483.623459,17.9046813 C483.339662,17.7012855 483.093918,17.5253855 482.784466,17.3038227 L484.153997,15.4110182 C484.840353,14.4623987 485.53263,13.5055863 486.246738,12.5186806 Z M441.957101,11.6260589 C442.140366,11.8994219 442.294048,12.1287179 442.479277,12.4050269 C441.872895,12.8158694 441.30481,13.2008117 440.672651,13.6290845 C440.918641,14.0105898 441.155793,14.3779789 441.433084,14.807602 C441.882592,14.5272423 442.305709,14.2632082 442.789833,13.9611218 C442.954318,14.199133 443.11156,14.4265877 443.311027,14.7152945 C442.87048,15.0161534 442.443434,15.3078061 441.982387,15.6226584 C442.434105,16.3278541 442.85845,16.9903329 443.298998,17.6782208 C443.144579,17.7905366 443.019989,17.8892272 442.887174,17.9752745 C442.754481,18.0613219 442.613688,18.1346033 442.431037,18.2395541 C441.380915,16.6337457 440.34626,15.0515052 439.26361,13.3959833 C440.166923,12.8023669 441.042372,12.227163 441.957101,11.6260589 Z M482.470105,10.4937442 C482.508403,10.5006182 482.550874,10.4991452 482.584385,10.5159619 C483.582706,11.0169024 483.579146,11.0165342 483.348009,12.1049536 C483.009712,13.6981188 482.676938,15.2926342 482.324279,16.9697601 C481.973706,16.7790074 481.681317,16.6199241 481.400834,16.467101 C481.576489,15.1550321 481.576489,15.1550321 480.423626,14.5595745 L480.321624,14.5082571 C480.041288,14.3757363 479.956466,14.4545378 479.108243,15.2425525 C478.813644,15.0811369 478.549119,14.9364153 478.278948,14.7885022 C479.733283,13.3808115 481.161473,11.9984071 482.589663,10.6158799 L482.470105,10.4937442 L482.470105,10.4937442 Z M445.115604,9.95216136 C446.471249,11.391276 447.838064,12.8421746 449.273374,14.3658636 C448.882908,14.5643494 448.59727,14.7094393 448.33925,14.8405357 C448.27493,14.8093574 448.253203,14.8045701 448.239455,14.7913132 C447.964619,14.5254379 447.670634,14.0217968 447.420839,14.0429098 C446.945921,14.0829261 446.47886,14.3942187 446.047027,14.6562888 C445.919613,14.7336209 445.849523,15.0344799 445.87616,15.2145533 C446.004433,16.08141 446.019408,16.0792005 445.085162,16.4324734 C445.010899,16.0297325 444.93774,15.6385299 444.866791,15.2468364 C444.622642,13.9008886 444.419983,12.5456119 444.11716,11.2130438 C443.983118,10.6239691 444.143428,10.3438549 444.671251,10.1756881 C444.805416,10.1329713 444.926324,10.0490107 445.115604,9.95216136 Z M486.532498,13.8939656 C486.211017,14.3370911 485.902303,14.7626635 485.548907,15.2494878 C486.001116,15.6166314 486.371819,16.1197815 486.956843,15.836353 C487.236466,15.7008376 487.547636,15.3015336 487.55942,15.0101264 C487.58397,14.4032531 487.022023,14.1728523 486.532498,13.8939656 Z M473.639705,7.03596569 C474.603043,7.09869066 474.693141,7.19787223 474.560204,8.06337864 C474.371538,9.29345095 474.175139,10.5222958 473.982054,11.7515088 C474.017651,11.7743402 474.053371,11.7970489 474.088968,11.8198803 C474.859712,10.5273285 475.630702,9.23477671 476.38647,7.96763407 C476.468344,7.95130839 476.512411,7.9272495 476.543712,7.9384197 C477.754144,8.37491677 477.614087,8.03686476 477.448376,9.39066852 C477.311387,10.5112483 477.159301,11.6298641 477.155127,12.793529 C477.74101,11.7502813 478.328735,10.7080157 478.91204,9.66341781 C479.380452,8.82467077 479.37812,8.82332053 480.331392,9.33113503 C479.321901,10.9862887 478.313882,12.6387419 477.272967,14.3452048 L476.682772,14.1451693 C476.483964,14.0777951 476.279862,14.0086258 476.060816,13.9343624 C476.248377,12.4362053 476.434588,10.9467634 476.621044,9.45732147 C476.580169,9.43854081 476.539293,9.41963739 476.49854,9.40085672 C475.723991,10.6765918 474.949565,11.9523269 474.183117,13.2146823 C474.106767,13.2146823 474.064787,13.2238886 474.028453,13.2133321 C472.944084,12.8990935 472.943839,12.898848 473.076285,11.7808459 C473.263724,10.1984827 473.452022,8.6162422 473.639705,7.03596569 Z M482.432544,11.6446431 C481.837945,12.295338 481.243224,12.9459101 480.600631,13.6488963 C481.057995,13.8951317 481.426612,14.0934948 481.892078,14.3441492 C482.127388,13.3873172 482.334467,12.5455014 482.541545,11.7036856 L482.432544,11.6446431 Z M450.405627,7.74470878 C450.53525,8.10681968 450.628172,8.36594378 450.737787,8.67208092 C450.304727,8.79053415 449.893148,8.88529673 449.494089,9.01762065 C449.14499,9.13349613 448.849655,9.33529624 448.94098,9.77191606 C449.027764,10.1861955 449.233738,10.4884046 449.731732,10.4461788 C449.97539,10.4255569 450.221503,10.4339039 450.466511,10.4312034 C451.629562,10.4185602 452.140199,10.8400818 452.35452,11.988403 C452.485125,12.6880749 452.310944,13.2079188 451.663195,13.5381149 C451.041469,13.855054 450.352476,14.0401602 449.638811,14.3032123 C449.48562,13.8821816 449.396013,13.6358235 449.290816,13.3463802 C449.774326,13.2185981 450.245684,13.1256767 450.693106,12.9658569 C451.06025,12.8348832 451.43169,12.6387296 451.329685,12.1339839 C451.22498,11.6152446 450.910373,11.365204 450.36426,11.4301385 C450.16246,11.4540746 449.955382,11.4311205 449.752354,11.4486736 C448.591513,11.5492054 448.062954,11.0537886 447.886685,9.62191622 C447.820769,9.08599209 448.10297,8.64458505 448.578624,8.42216303 C449.142044,8.1587427 449.746831,7.98407022 450.405627,7.74470878 Z M445.108485,11.2029783 C445.065891,11.2319472 445.023296,11.2609161 444.98058,11.2898849 C445.169614,12.128632 445.358525,12.9672563 445.564253,13.8800212 C446.026896,13.6460608 446.415275,13.4496616 446.864784,13.2223296 C446.246495,12.5113648 445.677428,11.8572329 445.108485,11.2029783 Z M455.846595,6.38083957 C455.925645,6.71361334 455.98567,6.96647722 456.061775,7.28722155 C455.554328,7.42273695 455.073028,7.55113289 454.527529,7.69671374 C454.886817,9.2649608 455.24009,10.8065712 455.607111,12.4086971 C455.262185,12.4917985 454.973601,12.5612747 454.623028,12.6457263 C454.247906,11.0708508 453.881376,9.53169537 453.502817,7.9425809 C452.976344,8.04998668 452.504495,8.1460995 451.955069,8.25816976 C451.881665,7.97032228 451.814275,7.70641095 451.728105,7.36872719 C453.103267,7.0388994 454.441359,6.71790957 455.846595,6.38083957 Z M468.590934,6.02912555 C469.54703,6.1645182 470.515891,6.12671137 471.355989,6.660426 C472.268631,7.24004894 472.219899,8.82854966 471.289704,9.43468647 C471.13774,9.53362254 470.967855,9.60506272 470.746538,9.72044721 C471.055007,10.6475739 471.348746,11.5305107 471.646782,12.42695 C470.599484,12.4418027 470.598256,12.4422937 470.303658,11.5577611 C470.161882,11.1319432 470.007218,10.7093168 469.892201,10.2763795 C469.78099,9.85669911 469.563969,9.63464534 469.029886,9.73947338 C468.897931,10.4379178 468.760083,11.1681543 468.611188,11.9560831 C468.263193,11.9017051 467.95411,11.8533418 467.599364,11.797859 C467.932997,9.85608536 468.253864,7.98992537 468.590934,6.02912555 Z M461.59559,5.77326658 C461.628241,6.11180958 461.654755,6.38652287 461.685074,6.70100697 C460.95226,6.77232441 460.269405,6.83885461 459.522475,6.91164504 C459.558931,7.37968872 459.592933,7.81360805 459.628407,8.26630805 L461.214699,8.26630805 C461.248209,8.52727339 461.281474,8.78480175 461.322718,9.10480958 C460.790845,9.16471132 460.2942,9.22068507 459.725993,9.28476029 C459.77988,10.0881555 459.83254,10.8709288 459.890846,11.7386447 C459.556231,11.7638083 459.263473,11.7859032 458.880372,11.8148721 C458.720798,9.9032948 458.563924,8.02252762 458.397721,6.03140869 C459.489823,5.94327458 460.517604,5.86029595 461.59559,5.77326658 Z M464.764551,5.69291479 C465.974984,5.70973146 466.694787,6.22405169 466.731121,7.25244663 C466.7677,8.2883293 466.738608,9.3394329 466.59941,10.3651274 C466.461194,11.3841933 465.725066,11.7810423 464.471426,11.693522 C463.398841,11.6186448 462.793195,11.0805112 462.72151,10.0952013 C462.687385,9.62777137 462.715618,9.15592246 462.715618,8.68603754 L462.737835,8.68616029 L462.737835,8.68616029 C462.765822,8.19638996 462.771469,7.70428738 462.82646,7.21758579 C462.941722,6.19766055 463.617335,5.67708011 464.764551,5.69291479 Z M464.805304,6.63256188 C464.208128,6.6150087 463.887629,6.87020483 463.842089,7.48886209 C463.783783,8.28182358 463.75776,9.07846755 463.755053,9.87363853 C463.753219,10.4598899 464.093726,10.7715508 464.673103,10.7918045 C465.242047,10.8115671 465.580344,10.5196689 465.641351,9.92359756 C465.684927,9.49765695 465.695974,9.0684021 465.721629,8.64062024 L465.735868,8.64037474 L465.735868,8.64037474 C465.735868,8.29348478 465.742496,7.94647206 465.734395,7.5998276 C465.719788,6.95870718 465.419788,6.65060605 464.805304,6.63256188 Z M469.568388,7.12761044 C469.53365,7.12049097 469.434346,7.26840406 469.418266,7.35420593 C469.333323,7.80801067 469.265443,8.26488415 469.18271,8.77576739 C469.509346,8.83665112 469.805663,8.9775675 470.050548,8.91545627 C470.348093,8.84008811 470.740646,8.6492127 470.838354,8.40616878 C470.947724,8.13427873 470.889295,7.61087505 470.693755,7.44479503 C470.421988,7.21427155 469.955908,7.20801133 469.568388,7.12761044 Z" id="gofastforward"></path>
                </g>
            </g>
        </g>
    </g>
</svg>