<?xml version="1.0" encoding="UTF-8"?>
<svg width="115px" height="76px" viewBox="0 0 115 76" version="1.1" xmlns="http://www.w3.org/2000/svg" xmlns:xlink="http://www.w3.org/1999/xlink">
    <title>Combined Shape</title>
    <g id="Symbols" stroke="none" stroke-width="1" fill="none" fill-rule="evenodd">
        <g id="Footer" transform="translate(-538.000000, -764.000000)" fill="#666666">
            <g id="Certifiicates" transform="translate(390.000000, 689.000000)">
                <g id="logos" transform="translate(148.000000, 65.000000)">
                    <path d="M112.452,77.2736894 C112.972,77.2736894 113.414,77.3636894 113.778,77.5436894 C114.142,77.7236894 114.416,77.9656894 114.6,78.2696894 C114.784,78.5736894 114.876,78.9016894 114.876,79.2536894 C114.876,79.6536894 114.754,80.0116894 114.51,80.3276894 C114.266,80.6436894 113.964,80.8656894 113.604,80.9936894 C114.012,81.0896894 114.35,81.3116894 114.618,81.6596894 C114.886,82.0076894 115.02,82.4216894 115.02,82.9016894 C115.02,83.3176894 114.906,83.6956894 114.678,84.0356894 C114.45,84.3756894 114.128,84.6436894 113.712,84.8396894 C113.296,85.0356894 112.816,85.1336894 112.272,85.1336894 C111.864,85.1336894 111.454,85.0716894 111.042,84.9476894 C110.63,84.8236894 110.252,84.6696894 109.908,84.4856894 L109.908,84.4856894 L110.4,83.8136894 C110.712,84.0056894 111.01,84.1456894 111.294,84.2336894 C111.578,84.3216894 111.916,84.3656894 112.308,84.3656894 C112.612,84.3656894 112.898,84.3076894 113.166,84.1916894 C113.434,84.0756894 113.652,83.9076894 113.82,83.6876894 C113.988,83.4676894 114.072,83.2136894 114.072,82.9256894 C114.072,82.4296894 113.892,82.0456894 113.532,81.7736894 C113.172,81.5016894 112.612,81.3656894 111.852,81.3656894 L111.852,81.3656894 L111.564,81.3656894 L111.42,80.6576894 L111.924,80.6576894 C112.54,80.6576894 113.028,80.5316894 113.388,80.2796894 C113.748,80.0276894 113.928,79.6896894 113.928,79.2656894 C113.928,78.9296894 113.79,78.6416894 113.514,78.4016894 C113.238,78.1616894 112.872,78.0416894 112.416,78.0416894 C112.04,78.0416894 111.692,78.0996894 111.372,78.2156894 C111.052,78.3316894 110.772,78.4736894 110.532,78.6416894 L110.532,78.6416894 L110.064,78.0176894 C110.84,77.5216894 111.636,77.2736894 112.452,77.2736894 Z M72.756,77.4296894 L73.068,77.8496894 L70.416,85.0496894 L69.516,84.7736894 L72.012,78.2096894 L68.268,78.2096894 L68.148,77.4296894 L72.756,77.4296894 Z M57.156,75.8936894 C57.452,75.8936894 57.808,75.9356894 58.224,76.0196894 C58.64,76.1036894 58.964,76.2176894 59.196,76.3616894 L59.196,76.3616894 L58.896,77.0456894 C58.576,76.9256894 58.3,76.8396894 58.068,76.7876894 C57.836,76.7356894 57.532,76.7096894 57.156,76.7096894 C56.628,76.7096894 56.146,76.8576894 55.71,77.1536894 C55.274,77.4496894 54.932,77.8616894 54.684,78.3896894 C54.436,78.9176894 54.312,79.5136894 54.312,80.1776894 C54.312,80.8016894 54.42,81.3716894 54.636,81.8876894 C54.852,82.4036894 55.168,82.8116894 55.584,83.1116894 C56,83.4116894 56.488,83.5616894 57.048,83.5616894 C57.432,83.5616894 57.766,83.5296894 58.05,83.4656894 C58.334,83.4016894 58.6,83.3136894 58.848,83.2016894 L58.848,83.2016894 L59.208,83.9216894 C58.96,84.0496894 58.63,84.1596894 58.218,84.2516894 C57.806,84.3436894 57.428,84.3896894 57.084,84.3896894 C56.284,84.3896894 55.6,84.2016894 55.032,83.8256894 C54.464,83.4496894 54.036,82.9416894 53.748,82.3016894 C53.46,81.6616894 53.316,80.9576894 53.316,80.1896894 C53.316,79.3816894 53.472,78.6516894 53.784,77.9996894 C54.096,77.3476894 54.544,76.8336894 55.128,76.4576894 C55.712,76.0816894 56.388,75.8936894 57.156,75.8936894 Z M28.608,75.8696894 C29.336,75.8696894 29.992,76.0496894 30.576,76.4096894 C31.16,76.7696894 31.616,77.2696894 31.944,77.9096894 C32.272,78.5496894 32.436,79.2736894 32.436,80.0816894 C32.436,80.8896894 32.27,81.6196894 31.938,82.2716894 C31.606,82.9236894 31.144,83.4376894 30.552,83.8136894 C29.96,84.1896894 29.296,84.3816894 28.56,84.3896894 C27.832,84.3896894 27.18,84.2096894 26.604,83.8496894 C26.028,83.4896894 25.576,82.9896894 25.248,82.3496894 C24.92,81.7096894 24.756,80.9856894 24.756,80.1776894 C24.756,79.3696894 24.922,78.6416894 25.254,77.9936894 C25.586,77.3456894 26.044,76.8336894 26.628,76.4576894 C27.212,76.0816894 27.872,75.8856894 28.608,75.8696894 Z M102.612,77.2736894 C103.212,77.2736894 103.752,77.4236894 104.232,77.7236894 C104.712,78.0236894 105.088,78.4376894 105.36,78.9656894 C105.632,79.4936894 105.768,80.0896894 105.768,80.7536894 C105.768,81.4416894 105.632,82.0616894 105.36,82.6136894 C105.088,83.1656894 104.712,83.5976894 104.232,83.9096894 C103.752,84.2216894 103.212,84.3776894 102.612,84.3776894 C102.004,84.3776894 101.46,84.2236894 100.98,83.9156894 C100.5,83.6076894 100.124,83.1796894 99.852,82.6316894 C99.58,82.0836894 99.444,81.4656894 99.444,80.7776894 C99.444,80.1056894 99.58,79.5036894 99.852,78.9716894 C100.124,78.4396894 100.5,78.0236894 100.98,77.7236894 C101.46,77.4236894 102.004,77.2736894 102.612,77.2736894 Z M83.988,77.2736894 C84.588,77.2736894 85.128,77.4236894 85.608,77.7236894 C86.088,78.0236894 86.464,78.4376894 86.736,78.9656894 C87.008,79.4936894 87.144,80.0896894 87.144,80.7536894 C87.144,81.4416894 87.008,82.0616894 86.736,82.6136894 C86.464,83.1656894 86.088,83.5976894 85.608,83.9096894 C85.128,84.2216894 84.588,84.3776894 83.988,84.3776894 C83.38,84.3776894 82.836,84.2236894 82.356,83.9156894 C81.876,83.6076894 81.5,83.1796894 81.228,82.6316894 C80.956,82.0836894 80.82,81.4656894 80.82,80.7776894 C80.82,80.1056894 80.956,79.5036894 81.228,78.9716894 C81.5,78.4396894 81.876,78.0236894 82.356,77.7236894 C82.836,77.4236894 83.38,77.2736894 83.988,77.2736894 Z M76.872,77.2736894 C77.472,77.2736894 78.012,77.4236894 78.492,77.7236894 C78.972,78.0236894 79.348,78.4376894 79.62,78.9656894 C79.892,79.4936894 80.028,80.0896894 80.028,80.7536894 C80.028,81.4416894 79.892,82.0616894 79.62,82.6136894 C79.348,83.1656894 78.972,83.5976894 78.492,83.9096894 C78.012,84.2216894 77.472,84.3776894 76.872,84.3776894 C76.264,84.3776894 75.72,84.2236894 75.24,83.9156894 C74.76,83.6076894 74.384,83.1796894 74.112,82.6316894 C73.84,82.0836894 73.704,81.4656894 73.704,80.7776894 C73.704,80.1056894 73.84,79.5036894 74.112,78.9716894 C74.384,78.4396894 74.76,78.0236894 75.24,77.7236894 C75.72,77.4236894 76.264,77.2736894 76.872,77.2736894 Z M9.084,75.8696894 C9.468,75.8696894 9.842,75.9176894 10.206,76.0136894 C10.57,76.1096894 10.892,76.2296894 11.172,76.3736894 L11.172,76.3736894 L10.848,77.1056894 C10.552,76.9696894 10.282,76.8656894 10.038,76.7936894 C9.794,76.7216894 9.496,76.6856894 9.144,76.6856894 C8.616,76.6856894 8.194,76.7936894 7.878,77.0096894 C7.562,77.2256894 7.404,77.5256894 7.404,77.9096894 C7.404,78.1976894 7.482,78.4436894 7.638,78.6476894 C7.794,78.8516894 8.016,79.0376894 8.304,79.2056894 C8.592,79.3736894 9.016,79.5856894 9.576,79.8416894 C10.08,80.0736894 10.486,80.2976894 10.794,80.5136894 C11.102,80.7296894 11.336,80.9756894 11.496,81.2516894 C11.656,81.5276894 11.736,81.8576894 11.736,82.2416894 C11.736,82.6576894 11.622,83.0256894 11.394,83.3456894 C11.166,83.6656894 10.834,83.9176894 10.398,84.1016894 C9.962,84.2856894 9.448,84.3776894 8.856,84.3776894 C8.504,84.3776894 8.096,84.3216894 7.632,84.2096894 C7.168,84.0976894 6.828,83.9696894 6.612,83.8256894 L6.612,83.8256894 L6.84,83.0816894 C7.096,83.2096894 7.406,83.3236894 7.77,83.4236894 C8.134,83.5236894 8.492,83.5736894 8.844,83.5736894 C9.468,83.5736894 9.95,83.4516894 10.29,83.2076894 C10.63,82.9636894 10.8,82.6456894 10.8,82.2536894 C10.8,81.9736894 10.72,81.7276894 10.56,81.5156894 C10.4,81.3036894 10.17,81.1116894 9.87,80.9396894 C9.57,80.7676894 9.16,80.5696894 8.64,80.3456894 C7.896,80.0256894 7.35,79.6776894 7.002,79.3016894 C6.654,78.9256894 6.48,78.4656894 6.48,77.9216894 C6.48,77.5376894 6.586,77.1896894 6.798,76.8776894 C7.01,76.5656894 7.314,76.3196894 7.71,76.1396894 C8.106,75.9596894 8.564,75.8696894 9.084,75.8696894 Z M21.204,75.8696894 C21.588,75.8696894 21.962,75.9176894 22.326,76.0136894 C22.69,76.1096894 23.012,76.2296894 23.292,76.3736894 L23.292,76.3736894 L22.968,77.1056894 C22.672,76.9696894 22.402,76.8656894 22.158,76.7936894 C21.914,76.7216894 21.616,76.6856894 21.264,76.6856894 C20.736,76.6856894 20.314,76.7936894 19.998,77.0096894 C19.682,77.2256894 19.524,77.5256894 19.524,77.9096894 C19.524,78.1976894 19.602,78.4436894 19.758,78.6476894 C19.914,78.8516894 20.136,79.0376894 20.424,79.2056894 C20.712,79.3736894 21.136,79.5856894 21.696,79.8416894 C22.2,80.0736894 22.606,80.2976894 22.914,80.5136894 C23.222,80.7296894 23.456,80.9756894 23.616,81.2516894 C23.776,81.5276894 23.856,81.8576894 23.856,82.2416894 C23.856,82.6576894 23.742,83.0256894 23.514,83.3456894 C23.286,83.6656894 22.954,83.9176894 22.518,84.1016894 C22.082,84.2856894 21.568,84.3776894 20.976,84.3776894 C20.624,84.3776894 20.216,84.3216894 19.752,84.2096894 C19.288,84.0976894 18.948,83.9696894 18.732,83.8256894 L18.732,83.8256894 L18.96,83.0816894 C19.216,83.2096894 19.526,83.3236894 19.89,83.4236894 C20.254,83.5236894 20.612,83.5736894 20.964,83.5736894 C21.588,83.5736894 22.07,83.4516894 22.41,83.2076894 C22.75,82.9636894 22.92,82.6456894 22.92,82.2536894 C22.92,81.9736894 22.84,81.7276894 22.68,81.5156894 C22.52,81.3036894 22.29,81.1116894 21.99,80.9396894 C21.69,80.7676894 21.28,80.5696894 20.76,80.3456894 C20.016,80.0256894 19.47,79.6776894 19.122,79.3016894 C18.774,78.9256894 18.6,78.4656894 18.6,77.9216894 C18.6,77.5376894 18.706,77.1896894 18.918,76.8776894 C19.13,76.5656894 19.434,76.3196894 19.83,76.1396894 C20.226,75.9596894 20.684,75.8696894 21.204,75.8696894 Z M39.528,75.7016894 L40.44,75.7496894 L36.768,84.2696894 L35.856,84.2216894 L39.528,75.7016894 Z M95.928,77.2736894 C96.696,77.2736894 97.306,77.4476894 97.758,77.7956894 C98.21,78.1436894 98.436,78.6136894 98.436,79.2056894 C98.436,79.6616894 98.3,80.1016894 98.028,80.5256894 C97.756,80.9496894 97.296,81.4336894 96.648,81.9776894 L96.648,81.9776894 L94.86,83.4776894 L98.652,83.4776894 L98.808,84.2216894 L93.6,84.2216894 L93.6,83.5376894 L96.144,81.3296894 C96.64,80.9056894 96.992,80.5456894 97.2,80.2496894 C97.408,79.9536894 97.512,79.6376894 97.512,79.3016894 C97.512,78.8936894 97.37,78.5836894 97.086,78.3716894 C96.802,78.1596894 96.412,78.0536894 95.916,78.0536894 C95.532,78.0536894 95.208,78.1076894 94.944,78.2156894 C94.68,78.3236894 94.376,78.4736894 94.032,78.6656894 L94.032,78.6656894 L93.756,77.8976894 C94.06,77.7136894 94.382,77.5636894 94.722,77.4476894 C95.062,77.3316894 95.464,77.2736894 95.928,77.2736894 Z M2.268,76.0616894 C3.172,76.0616894 3.876,76.2276894 4.38,76.5596894 C4.884,76.8916894 5.136,77.4456894 5.136,78.2216894 C5.136,78.5816894 5.032,78.8956894 4.824,79.1636894 C4.616,79.4316894 4.344,79.6616894 4.008,79.8536894 C4.504,80.0216894 4.89,80.2776894 5.166,80.6216894 C5.442,80.9656894 5.58,81.4016894 5.58,81.9296894 C5.58,82.7216894 5.304,83.3016894 4.752,83.6696894 C4.2,84.0376894 3.468,84.2216894 2.556,84.2216894 L2.556,84.2216894 L-1.42108547e-14,84.2216894 L-1.42108547e-14,76.0616894 Z M45.42,76.0616894 L45.42,84.2216894 L44.472,84.2216894 L44.472,76.0616894 L45.42,76.0616894 Z M52.092,76.0616894 L52.2,76.7696894 L48.588,76.7696894 L48.588,79.6976894 L51.408,79.6976894 L51.516,80.4056894 L48.588,80.4056894 L48.588,83.4656894 L52.44,83.4656894 L52.56,84.2216894 L47.64,84.2216894 L47.64,76.0616894 L52.092,76.0616894 Z M16.98,76.0616894 L16.98,84.2216894 L16.032,84.2216894 L16.032,76.0616894 L16.98,76.0616894 Z M90.42,77.4296894 L90.42,84.2216894 L89.46,84.2216894 L89.46,78.5336894 L88.08,79.1816894 L87.66,78.4136894 L89.784,77.4296894 L90.42,77.4296894 Z M64.908,77.2736894 C65.676,77.2736894 66.286,77.4476894 66.738,77.7956894 C67.19,78.1436894 67.416,78.6136894 67.416,79.2056894 C67.416,79.6616894 67.28,80.1016894 67.008,80.5256894 C66.736,80.9496894 66.276,81.4336894 65.628,81.9776894 L65.628,81.9776894 L63.84,83.4776894 L67.632,83.4776894 L67.788,84.2216894 L62.58,84.2216894 L62.58,83.5376894 L65.124,81.3296894 C65.62,80.9056894 65.972,80.5456894 66.18,80.2496894 C66.388,79.9536894 66.492,79.6376894 66.492,79.3016894 C66.492,78.8936894 66.35,78.5836894 66.066,78.3716894 C65.782,78.1596894 65.392,78.0536894 64.896,78.0536894 C64.512,78.0536894 64.188,78.1076894 63.924,78.2156894 C63.66,78.3236894 63.356,78.4736894 63.012,78.6656894 L63.012,78.6656894 L62.736,77.8976894 C63.04,77.7136894 63.362,77.5636894 63.702,77.4476894 C64.042,77.3316894 64.444,77.2736894 64.908,77.2736894 Z M109.044,77.4296894 L109.044,84.2216894 L108.084,84.2216894 L108.084,78.5336894 L106.704,79.1816894 L106.284,78.4136894 L108.408,77.4296894 L109.044,77.4296894 Z M92.292,82.5896894 C92.476,82.5896894 92.63,82.6536894 92.754,82.7816894 C92.878,82.9096894 92.94,83.0656894 92.94,83.2496894 C92.94,83.4256894 92.878,83.5776894 92.754,83.7056894 C92.63,83.8336894 92.476,83.8976894 92.292,83.8976894 C92.116,83.8976894 91.964,83.8336894 91.836,83.7056894 C91.708,83.5776894 91.644,83.4256894 91.644,83.2496894 C91.644,83.0656894 91.708,82.9096894 91.836,82.7816894 C91.964,82.6536894 92.116,82.5896894 92.292,82.5896894 Z M28.632,76.6976894 C28.08,76.6976894 27.586,76.8476894 27.15,77.1476894 C26.714,77.4476894 26.372,77.8596894 26.124,78.3836894 C25.876,78.9076894 25.752,79.5016894 25.752,80.1656894 C25.752,80.8136894 25.872,81.3956894 26.112,81.9116894 C26.352,82.4276894 26.682,82.8316894 27.102,83.1236894 C27.522,83.4156894 28,83.5616894 28.536,83.5616894 C29.088,83.5616894 29.582,83.4136894 30.018,83.1176894 C30.454,82.8216894 30.796,82.4096894 31.044,81.8816894 C31.292,81.3536894 31.416,80.7576894 31.416,80.0936894 C31.416,79.4456894 31.296,78.8636894 31.056,78.3476894 C30.816,77.8316894 30.486,77.4276894 30.066,77.1356894 C29.646,76.8436894 29.168,76.6976894 28.632,76.6976894 Z M76.872,78.0776894 C76.448,78.0776894 76.066,78.1916894 75.726,78.4196894 C75.386,78.6476894 75.12,78.9636894 74.928,79.3676894 C74.736,79.7716894 74.64,80.2296894 74.64,80.7416894 C74.64,81.2776894 74.736,81.7596894 74.928,82.1876894 C75.12,82.6156894 75.386,82.9516894 75.726,83.1956894 C76.066,83.4396894 76.448,83.5616894 76.872,83.5616894 C77.296,83.5616894 77.678,83.4436894 78.018,83.2076894 C78.358,82.9716894 78.622,82.6436894 78.81,82.2236894 C78.998,81.8036894 79.092,81.3296894 79.092,80.8016894 C79.092,80.2816894 78.998,79.8136894 78.81,79.3976894 C78.622,78.9816894 78.358,78.6576894 78.018,78.4256894 C77.678,78.1936894 77.296,78.0776894 76.872,78.0776894 Z M83.988,78.0776894 C83.564,78.0776894 83.182,78.1916894 82.842,78.4196894 C82.502,78.6476894 82.236,78.9636894 82.044,79.3676894 C81.852,79.7716894 81.756,80.2296894 81.756,80.7416894 C81.756,81.2776894 81.852,81.7596894 82.044,82.1876894 C82.236,82.6156894 82.502,82.9516894 82.842,83.1956894 C83.182,83.4396894 83.564,83.5616894 83.988,83.5616894 C84.412,83.5616894 84.794,83.4436894 85.134,83.2076894 C85.474,82.9716894 85.738,82.6436894 85.926,82.2236894 C86.114,81.8036894 86.208,81.3296894 86.208,80.8016894 C86.208,80.2816894 86.114,79.8136894 85.926,79.3976894 C85.738,78.9816894 85.474,78.6576894 85.134,78.4256894 C84.794,78.1936894 84.412,78.0776894 83.988,78.0776894 Z M102.612,78.0776894 C102.188,78.0776894 101.806,78.1916894 101.466,78.4196894 C101.126,78.6476894 100.86,78.9636894 100.668,79.3676894 C100.476,79.7716894 100.38,80.2296894 100.38,80.7416894 C100.38,81.2776894 100.476,81.7596894 100.668,82.1876894 C100.86,82.6156894 101.126,82.9516894 101.466,83.1956894 C101.806,83.4396894 102.188,83.5616894 102.612,83.5616894 C103.036,83.5616894 103.418,83.4436894 103.758,83.2076894 C104.098,82.9716894 104.362,82.6436894 104.55,82.2236894 C104.738,81.8036894 104.832,81.3296894 104.832,80.8016894 C104.832,80.2816894 104.738,79.8136894 104.55,79.3976894 C104.362,78.9816894 104.098,78.6576894 103.758,78.4256894 C103.418,78.1936894 103.036,78.0776894 102.612,78.0776894 Z M2.664,80.3816894 L0.948,80.3816894 L0.948,83.4296894 L2.544,83.4296894 C3.928,83.4296894 4.62,82.9376894 4.62,81.9536894 C4.62,81.4176894 4.448,81.0216894 4.104,80.7656894 C3.76,80.5096894 3.28,80.3816894 2.664,80.3816894 L2.664,80.3816894 Z M92.292,78.7376894 C92.468,78.7376894 92.62,78.8036894 92.748,78.9356894 C92.876,79.0676894 92.94,79.2216894 92.94,79.3976894 C92.94,79.5736894 92.876,79.7256894 92.748,79.8536894 C92.62,79.9816894 92.468,80.0456894 92.292,80.0456894 C92.116,80.0456894 91.964,79.9816894 91.836,79.8536894 C91.708,79.7256894 91.644,79.5736894 91.644,79.3976894 C91.644,79.2216894 91.708,79.0676894 91.836,78.9356894 C91.964,78.8036894 92.116,78.7376894 92.292,78.7376894 Z M2.232,76.8656894 L0.948,76.8656894 L0.948,79.6136894 L2.052,79.6136894 C2.692,79.6056894 3.206,79.4956894 3.594,79.2836894 C3.982,79.0716894 4.176,78.7216894 4.176,78.2336894 C4.176,77.7056894 4.014,77.3456894 3.69,77.1536894 C3.366,76.9616894 2.88,76.8656894 2.232,76.8656894 L2.232,76.8656894 Z M41.3134507,50.7524382 C41.947897,51.7327124 42.7057615,52.7129866 43.5020367,53.6295052 L43.9029816,54.0821564 L44.0372202,54.1496507 C45.2427432,53.6453184 46.4711809,53.1873363 47.7229674,52.7956681 L48.4768445,52.5687845 L48.577336,52.4675431 L47.7366572,50.483211 C47.9384972,50.3970754 48.2395126,50.434358 48.5329717,50.446768 L48.6785775,50.4502138 L49.5867506,52.232063 C51.5365856,51.8285971 53.5546648,51.5931171 55.6394884,51.4926256 C55.8160047,51.1979942 55.7094552,50.9297748 55.7252756,50.5970329 L55.7407298,50.4502138 L56.6151559,50.4502138 C56.7493945,50.7186911 56.6151559,51.1559041 56.7163973,51.4588784 C58.4815604,51.5763372 60.3753377,51.771309 62.1505488,52.1111152 L62.9033737,52.2658101 L63.8115469,50.4502138 L64.71972,50.4502138 C64.6046583,51.026165 64.2670032,51.5778734 64.0241156,52.1473704 L63.9120384,52.4337959 L64.0807741,52.5687845 C65.5933961,52.9722503 66.9387822,53.5107048 68.419157,54.1151536 C69.4050735,53.1292371 70.2055243,51.983334 70.9621928,50.8670581 L71.2441679,50.4502138 L72.2858298,50.4502138 C71.478898,51.8960914 70.4364863,53.2077304 69.3603273,54.5193694 C70.167259,55.0570739 71.0754322,55.4942869 71.916111,56.0327414 C71.9836053,56.1332329 72.1845883,56.16698 72.2520826,56.0664885 C74.2026676,54.5193694 75.9860166,52.5350373 77.3981471,50.483211 C77.7341187,50.4502138 78.1713317,50.4502138 78.4735561,50.483211 C72.7567899,59.2942154 62.9033737,63.7675868 52.5789974,62.3884535 C49.5867506,61.9849877 46.7617397,61.0430674 44.1047145,59.7314284 C44.1722088,59.6984312 44.1047145,59.6309369 44.0709674,59.6309369 C44.0372202,59.6309369 44.0372202,59.664684 44.0372202,59.664684 C40.1030532,57.6803519 36.3361219,54.3176365 33.9153268,50.483211 C34.3187926,50.4502138 34.5880198,50.4164666 34.9914857,50.483211 C36.4036162,52.6017817 38.2867069,54.6198609 40.3047861,56.16698 C41.2467064,55.729767 42.1541296,55.1238183 43.0623027,54.5861138 C41.9861438,53.2414776 40.9099849,51.9298386 40.1030532,50.4502138 C40.4727719,50.5169581 41.1454649,50.1809866 41.3134507,50.7524382 Z M50.8308953,60.7408429 C50.7296539,60.8413344 50.4941738,60.8750816 50.5616681,61.0430674 C54.1261165,61.9182433 58.0940307,61.8837462 61.659229,61.1105617 C61.7267233,61.0430674 61.9959505,61.1105617 61.8947091,60.9088287 C58.834968,58.6890166 53.9581307,58.6890166 50.8308953,60.7408429 Z M43.8024901,55.3937954 C43.0738018,55.7018944 42.3919845,56.1266501 41.717545,56.551753 L41.3134507,56.8059259 L41.3134507,56.9064174 C43.7349958,58.6552694 46.3582738,59.9339112 49.1832848,60.6733487 C49.4180149,60.53911 49.6872421,60.3366272 49.8552279,60.1356442 C47.70291,58.7565109 45.718578,57.3098833 43.8024901,55.3937954 Z M68.5871428,55.3600483 C66.8919112,57.0552798 65.1109786,58.4965589 63.1686738,59.7093018 L62.6348964,60.0344027 L62.5674022,60.1356442 C62.7440122,60.2863814 62.9206223,60.4379623 63.1114694,60.5609636 L63.3075895,60.6733487 L64.8877058,60.1686414 C67.107518,59.3279625 69.292833,58.3192979 71.1766736,56.8059259 C70.3697419,56.2344743 69.4953159,55.729767 68.5871428,55.3600483 Z M48.9478047,53.4424606 C47.7115343,53.7666206 46.5011016,54.1671453 45.3391145,54.6907578 L44.8441519,54.9228353 L44.8441519,55.0240767 C46.6267511,56.8734202 48.7460718,58.4197894 50.965134,59.5296954 C51.4360941,59.2612182 52.0075458,59.0924824 52.4785059,58.8240052 C51.419408,57.2937597 50.359736,55.7635141 49.4582478,54.1659472 L49.0820433,53.4769576 L48.9478047,53.4424606 Z M63.4755753,53.4424606 L63.3743339,53.5107048 C62.5508098,55.0698228 61.6239351,56.5520021 60.5937098,58.0019561 L60.1458571,58.6215223 L60.0453656,58.8570024 L61.4912432,59.4959483 C62.2981749,59.0924824 63.0713595,58.5885251 63.845294,58.1175649 C65.1224359,57.2093918 66.5015692,56.1332329 67.5784781,54.8890881 C66.3005862,54.2501422 64.921453,53.7791821 63.4755753,53.4424606 Z M55.7069827,52.5012902 C54.0331244,52.5012902 52.4120023,52.7140129 50.8441432,52.9972482 L50.2586938,53.106489 L50.090708,53.2414776 C51.0656255,55.0908211 52.2092787,56.8734202 53.588412,58.5210308 C54.1265664,58.3866422 54.7290355,58.3597644 55.3101943,58.2679962 L55.7407298,58.1843093 L55.7069827,52.5012902 Z M56.7493945,52.5012902 C56.6632589,54.2021463 56.6757477,55.7299966 56.7231052,57.3814224 L56.7493945,58.2188064 L57.3208461,58.2855507 C57.8930477,58.3192979 58.4315021,58.5547779 59.0022039,58.4872837 C60.1381077,57.0227409 61.1946109,55.478205 62.0769066,53.8773775 L62.3994164,53.2744748 L62.3656692,53.1739833 C60.5830701,52.7367703 58.6662323,52.5350373 56.7493945,52.5012902 Z M84.4939717,26.6404786 C86.0065937,27.6828904 87.2514883,29.128768 87.8566871,30.7433814 C89.370059,34.9130286 89.2020733,40.461809 86.7137838,44.161246 C85.7086689,45.4799344 84.3821411,46.4752501 82.9793105,47.1221945 L82.6776254,47.2554841 L82.5343875,47.3184788 C82.0296802,47.5914557 81.2947424,47.7804397 81.063012,47.8269358 C76.1869246,49.2053191 70.7056385,48.4658817 66.9387072,45.1031663 C63.7109804,41.9076867 63.4755003,36.8298664 64.3829235,32.5589778 C64.8876308,29.9694469 66.5014942,27.4474103 68.9567865,26.1695185 C73.4639051,23.6137347 80.1225916,23.8154677 84.4939717,26.6404786 Z M55.6811352,25.4425469 L55.9762099,25.5643947 L57.523329,26.4050735 C57.6905648,26.0016077 57.5563262,25.430156 57.6230706,25.0259402 C59.1371924,24.9591959 60.9865359,24.9591959 62.4999079,24.9921931 C62.533655,27.7834569 62.6348964,30.205002 62.5674022,32.9625186 C60.9535387,33.0300129 59.2376839,32.9962658 57.7580591,32.9962658 C56.3796758,30.8102008 53.9581307,30.003269 51.6040799,29.6672975 C50.4941738,29.6335503 49.014549,29.2968288 48.3756031,30.4067349 C48.3162748,30.7353738 48.4424123,31.0112763 48.6602621,31.2339159 L48.7460718,31.314908 L49.3512705,31.6178824 L57.4895819,34.0049304 C60.2133514,34.7113706 62.9033737,37.3009015 63.2738424,40.1596596 C63.6435611,43.085162 62.2981749,45.8089315 59.7761384,47.221812 C56.3121815,49.0374083 51.8058128,48.7014368 48.3088588,47.221812 C47.8797076,46.9945812 47.4509782,46.7487895 47.022038,46.5265153 L46.593004,46.3136388 L46.5262596,47.9275022 L41.4814365,47.9612494 C41.3935064,45.6074798 41.4083528,42.9183949 41.4581519,40.4581885 L41.4814365,39.4194722 L46.0215523,39.3857251 C46.2907795,39.7216966 46.4587653,40.1259124 46.7279925,40.461884 C49.014549,42.8834291 52.4447588,43.5561222 55.6057413,42.6816962 C55.8412213,42.5467076 56.1441957,42.3787218 56.1441957,42.0757474 C56.21169,41.7060287 55.8082241,41.4030544 55.5052498,41.2695657 C52.4785059,40.2264039 49.3512705,39.4532194 46.3575239,38.3770604 C44.1722088,37.5363816 41.8856523,35.7537824 41.4484393,33.3329873 C40.8762377,30.7764536 41.5489308,27.8846983 43.7349958,26.2708349 C47.0092187,23.8801556 52.0054486,23.9765038 55.6811352,25.4425469 Z M27.3569068,24.6225494 L40.0360838,24.6562965 C40.1240139,26.186542 40.1092395,27.9481781 40.081501,29.6488086 L40.069081,30.3730628 L36.7401127,30.4068099 L36.6726184,30.5073014 L36.6388713,42.3113025 C37.5612932,42.427007 38.6071333,42.3697057 39.5860694,42.393004 L40.069081,42.4125439 L40.069081,47.9613244 L25.238336,47.9613244 C25.1849406,46.4818496 25.1742615,45.023493 25.2062988,43.5351869 L25.238336,42.4125439 L28.5680543,42.3457996 L28.6010515,41.8740895 L28.6010515,30.440557 C27.4918953,30.3393156 26.4157364,30.3730628 25.2720832,30.3393156 C25.2431571,28.7824474 25.2390248,27.0288815 25.2596863,25.4370657 L25.2720832,24.6562965 L27.3569068,24.6225494 Z M76.1539274,30.204927 C74.9090328,30.3061684 73.5298995,30.64214 73.0259421,31.953779 C72.3869962,34.0723497 72.5557319,36.5276419 72.6554735,38.8479456 C72.7904621,40.024596 72.9254506,41.2694907 73.9678624,42.0089281 C75.2120071,42.7153683 77.0283534,42.8833541 78.3729896,42.2781553 C79.2144184,41.9751809 79.751373,41.1345021 79.9201087,40.3275704 C80.2560803,38.3769854 80.0880945,36.0904289 80.1225916,34.1735911 C80.0213502,33.265418 80.0550973,32.2567533 79.55039,31.4835688 C78.7434583,30.4066599 77.4655664,30.204927 76.1539274,30.204927 Z M57.8282495,10.0555442 L58.2287943,10.0943288 L58.2962886,10.1618231 L58.3300357,10.0943288 C66.3671056,10.7332747 73.7997267,15.1391519 78.3060953,21.9995713 C77.9701237,22.1675571 77.6326523,22.0333185 77.2291864,22.0333185 C75.8872821,20.0660742 74.2252965,18.2721266 72.3519094,16.7607557 L71.9158861,16.4170437 L71.5799145,16.5512824 L69.2258637,17.9304157 L69.2258637,18.0984015 C69.7973153,18.7036003 70.2682755,19.2758018 70.7054885,19.9147478 C71.2439429,20.5536937 71.7479003,21.2931311 72.1521161,22.0333185 C71.8821389,22.13381 71.5124202,22.1008128 71.1427015,22.1008128 C70.2682755,20.8229209 69.2926081,19.5112819 68.2509462,18.4013758 C66.9826964,18.9201176 65.7386894,19.4388595 64.4353347,19.8305625 L63.7783247,20.0152393 L63.7108304,20.0827335 L64.5515093,22.0333185 C64.3496692,22.1483802 64.02386,22.1157809 63.7445688,22.1041186 L63.609589,22.1008128 L62.7021658,20.3519608 L62.53418,20.3182136 C60.6503394,20.7891738 58.599263,20.9909067 56.648678,21.0913982 C56.5361875,21.3438768 56.6111812,21.6427057 56.580715,21.930164 L56.5474366,22.1008128 L55.6392634,22.1008128 C55.5387719,21.7978384 55.7405049,21.2931311 55.4712777,21.058401 C53.3864541,20.9909067 51.3346277,20.7554266 49.3840428,20.3182136 C49.0480712,20.8896653 48.8125911,21.5286112 48.5103667,22.1008128 C48.2145917,22.1272105 48.0047295,22.1540883 47.7429356,22.1296103 L47.5346993,22.1008128 L48.3753781,20.1502278 L48.2411395,20.0152393 C46.7615147,19.6117734 45.3493842,19.0403218 43.9027566,18.5018673 C42.8265977,19.6117734 41.9184245,20.8559181 41.0784956,22.1008128 C40.7417741,22.1675571 40.3045611,22.2013043 40.069081,22.1008128 C40.8430155,20.6879323 41.9184245,19.3762933 42.9615863,18.0646543 C42.1209074,17.5269498 41.14524,17.0559897 40.270814,16.4837881 C39.3296436,17.0897368 38.5227119,17.8966685 37.6482859,18.7373474 C36.6388713,19.8135063 35.7306982,20.9234124 34.9237664,22.0670656 C34.5877949,22.2013043 34.184329,22.0670656 33.8476075,22.1008128 C38.4889647,14.937419 45.9208358,10.7332747 53.9916529,10.0943288 C54.4288659,10.0605816 54.8660789,10.0275844 55.2365475,10.0605816 C56.0721911,9.97444608 57.006459,9.98693482 57.8282495,10.0555442 Z M53.3864541,14.0967401 C52.0073208,15.7443507 50.8644175,17.5269498 49.8887501,19.3762933 C50.7969232,19.6792677 51.9405764,19.7797592 52.8487496,19.9147478 C53.7899199,19.9814921 54.6305988,20.1502278 55.5725191,20.0152393 C55.5725191,18.3970637 55.6236202,16.6496998 55.5690741,15.0665487 L55.5387719,14.3989645 L53.3864541,14.0967401 Z M58.6997544,14.1304872 C58.0278113,14.2309787 57.286874,14.3322202 56.6149309,14.4327117 C56.5811837,16.2820552 56.5474366,18.2663872 56.6149309,20.0489864 C58.4987715,20.0489864 60.348115,19.8135063 62.1637113,19.3762933 C61.2892853,17.5269498 60.0113935,15.811845 58.6997544,14.1304872 Z M50.7631761,13.1548198 C48.790218,14.2031686 46.9874018,15.5338268 45.2755905,17.1213782 L44.8109298,17.560697 L44.7434355,17.7624299 C45.8394142,18.2522456 46.9838785,18.643437 48.1569935,18.9780355 L48.7458468,19.1408133 L48.8800854,19.1070661 C49.7766762,17.5825285 50.673267,16.0313264 51.7594714,14.5719684 L52.1760565,14.0292458 L52.276548,13.7600186 C51.7718407,13.5252885 51.2678834,13.3565527 50.7631761,13.1548198 Z M61.3230325,13.0880755 C60.8183252,13.3565527 60.2468735,13.5582857 59.7759134,13.8275129 C61.0538052,15.5426177 62.1974585,17.3252169 63.2398703,19.1070661 C64.5050132,18.8426197 65.6932173,18.3973098 66.8491962,17.9072863 L67.3427731,17.6949356 L67.4102673,17.5936942 C65.6276682,15.7780978 63.5083475,14.1979815 61.3230325,13.0880755 Z M48.5302539,12.0886384 L48.4428724,12.0786609 L48.4428724,12.0119165 C48.3086338,12.0119165 48.2411395,12.112408 48.140648,12.2136494 C45.8293971,12.9629432 43.6345395,14.0316716 41.6365342,15.4456537 L41.1789871,15.7780978 L41.1789871,15.8455921 C41.9859188,16.4170437 42.8265977,16.9210011 43.7347708,17.2577226 C45.6178615,15.374632 47.6696878,13.8275129 49.7545114,12.5158739 C49.5865256,12.3478881 49.3510456,12.2136494 49.1493126,12.0449137 C48.939997,11.8655956 48.7573458,12.0850585 48.5302539,12.0886384 Z M63.0381373,11.9444222 C62.8026573,12.112408 62.4666857,12.2803938 62.3991914,12.5158739 C64.3412146,13.6563399 66.2548807,15.0797455 67.9333941,16.7075313 L68.3851848,17.1564812 L68.5531706,17.1564812 L70.8742242,15.8455921 L70.9417185,15.7106035 C68.5194235,13.9625015 65.8631483,12.6846096 63.0381373,11.9444222 Z M50.3934574,11.6077007 C50.4272045,11.8431808 50.7631761,11.9106751 50.9311618,12.0449137 C53.9394489,13.9741255 58.505084,13.8370335 61.444829,11.8500345 L61.6927512,11.675195 L61.6927512,11.6077007 C58.16205,10.7002775 53.9586557,10.7670219 50.3934574,11.6077007 Z" id="Combined-Shape"></path>
                </g>
            </g>
        </g>
    </g>
</svg>