<svg xmlns="http://www.w3.org/2000/svg" width="25px" height="25px" viewBox="0 0 25 25">
    <path id="github" fill-rule="evenodd" d="M12.5,0 C5.596924,0 0,5.5969238 0,12.5 C0,18.0236816 3.58125,22.7081299 8.54873,24.3606445 C9.173584,24.4750977 9.401709,24.0890381 9.401709,23.7594482 C9.401709,23.4618896 9.390259,22.4761963 9.384155,21.4324951 C5.908203,22.187793 5.173486,19.9584961 5.173486,19.9584961 C4.604346,18.5150146 3.785693,18.1304932 3.785693,18.1304932 C2.649683,17.3553467 3.871875,17.3706055 3.871875,17.3706055 C5.126904,17.4575684 5.787646,18.6584473 5.787646,18.6584473 C6.903076,20.5688477 8.714282,20.0164795 9.425342,19.6960449 C9.538965,18.8903809 9.862451,18.3380127 10.218799,18.0267334 C7.443994,17.7108887 4.525,16.6381836 4.525,11.8484375 C4.525,10.4827637 5.012524,9.3688965 5.810547,8.4937988 C5.68313,8.176416 5.252832,6.9045898 5.934131,5.1841797 C5.934131,5.1841797 6.982422,4.8484863 9.371924,6.465918 C10.368311,6.1874512 11.437207,6.0501221 12.499976,6.0455322 C13.561987,6.0501221 14.631616,6.1889648 15.629565,6.4674316 C18.014526,4.8484863 19.064331,5.1856934 19.064331,5.1856934 C19.747925,6.9076416 19.317627,8.1779297 19.189453,8.4937988 C19.990527,9.3688965 20.474243,10.4827881 20.474243,11.8484375 C20.474243,16.6503906 17.550659,17.7078125 14.765942,18.0175781 C15.216089,18.4051514 15.614331,19.1650391 15.614331,20.3308105 C15.614331,22.0016602 15.597534,23.348999 15.597534,23.7609863 C15.597534,24.0936279 15.824878,24.4827148 16.45813,24.3606445 C21.421826,22.7050781 25,18.0206299 25,12.5 C25,5.5969238 19.403076,0 12.5,0 Z"></path>
</svg>