<svg xmlns="http://www.w3.org/2000/svg" width="25px" height="25px" viewBox="0 0 25 25">
    <path id="instagram" fill-rule="evenodd" d="M12.499926,2.2522303 C15.837559,2.2522303 16.232869,2.2650319 17.551082,2.3251694 C18.76981,2.3807917 19.431621,2.5843761 19.872133,2.7555597 C20.415063,2.9559448 20.906181,3.2754613 21.309381,3.6906191 C21.724539,4.0938194 22.044055,4.5849373 22.24444,5.1278667 C22.415624,5.5683295 22.619258,6.2301898 22.674831,7.4489178 C22.734968,8.7670315 22.74772,9.1623416 22.74772,12.5000744 C22.74772,15.8378073 22.734968,16.2330181 22.674831,17.551231 C22.619208,18.769959 22.415574,19.4317697 22.24444,19.8722822 C21.823918,20.9624199 20.962271,21.824067 19.872133,22.2445891 C19.43167,22.4157727 18.76981,22.6194068 17.551082,22.6749794 C16.233217,22.735117 15.837906,22.7478689 12.499926,22.7478689 C9.161945,22.7478689 8.766783,22.735117 7.448769,22.6749794 C6.230041,22.6193571 5.56823,22.4157231 5.127718,22.2445891 C4.584788,22.0442056 4.09367,21.7246888 3.69047,21.3095297 C3.275314,20.9063283 2.955797,20.4152108 2.755411,19.8722822 C2.584227,19.4318193 2.380593,18.769959 2.325021,17.551231 C2.264883,16.2331669 2.252131,15.8378073 2.252131,12.5000744 C2.252131,9.1623416 2.264883,8.7671308 2.325021,7.4489178 C2.380643,6.2301898 2.584227,5.5683792 2.755411,5.1278667 C2.955818,4.5849102 3.27537,4.0937741 3.69057,3.6905695 C4.093771,3.275413 4.584888,2.9558967 5.127817,2.7555101 C5.56828,2.5843265 6.23014,2.3806925 7.448868,2.3251198 C8.766982,2.2649823 9.162292,2.2522303 12.500025,2.2522303 L12.499926,2.2522303 Z M12.500025,0 C9.105231,0 8.679405,0.0143893 7.346357,0.0752215 C6.015838,0.1359545 5.107225,0.3472298 4.31214,0.6562534 C3.478083,0.9701213 2.72253,1.4621456 2.098165,2.0980163 C1.462151,2.7223418 0.969989,3.4778984 0.656005,4.3119908 C0.34723,5.1071262 0.135955,6.015739 0.07547,7.3462573 C0.014389,8.6793061 0,9.1051315 0,12.4999256 C0,15.8947196 0.014389,16.320545 0.07547,17.6535939 C0.136203,18.9841122 0.347478,19.8927249 0.656502,20.6878107 C0.970371,21.5218662 1.462395,22.2774196 2.098264,22.9017853 C2.722627,23.5376584 3.478181,24.0296831 4.312239,24.3435481 C5.107374,24.6525717 6.015987,24.863847 7.346456,24.92458 C8.679703,24.9854122 9.10538,24.9998015 12.500124,24.9998015 C15.894868,24.9998015 16.320743,24.9854122 17.653792,24.92458 C18.984311,24.863847 19.892923,24.6525717 20.688009,24.3435481 C22.367035,23.6941653 23.694364,22.3668362 24.343747,20.6878107 C24.65277,19.8926753 24.864045,18.9840626 24.924778,17.6535939 C24.985611,16.3203465 25,15.89467 25,12.4999256 C25,9.1051812 24.985611,8.6793061 24.924778,7.3462573 C24.864045,6.015739 24.65277,5.1071262 24.343747,4.3120404 C24.029882,3.4779828 23.537857,2.7224285 22.901984,2.0980659 C22.277606,1.4620684 21.521998,0.9699398 20.68786,0.6560053 C19.892725,0.3472298 18.984112,0.1359545 17.653594,0.0754696 C16.320545,0.0143893 15.89472,0 12.499926,0 L12.500025,0 Z M12.499926,6.0810368 C8.954871,6.0810368 6.081037,8.9548712 6.081037,12.4999256 C6.081037,16.0449799 8.954871,18.9188143 12.499926,18.9188143 C16.04498,18.9188143 18.918814,16.0449799 18.918814,12.4999256 C18.918814,8.9548712 16.04498,6.0810368 12.499926,6.0810368 Z M12.499992,8.3333168 C14.80114,8.3333168 16.666584,10.1987775 16.666584,12.4999256 C16.666584,14.8010881 14.801088,16.6665344 12.499926,16.6665344 C10.198778,16.6665344 8.333366,14.8010405 8.333366,12.4998925 C8.333366,10.1987445 10.198844,8.3333168 12.499992,8.3333168 Z M19.172414,4.3274717 C20.000822,4.3274717 20.672379,4.9990291 20.672379,5.827437 C20.672379,6.655845 20.000822,7.3274023 19.172414,7.3274023 C18.344006,7.3274023 17.672449,6.655845 17.672449,5.827437 C17.672449,4.9990291 18.344006,4.3274717 19.172414,4.3274717 Z"></path>
</svg>