<svg xmlns="http://www.w3.org/2000/svg" width="139" height="33" viewBox="0 0 139 33">
  <path id="lab-digital-logo" fill="#000" fill-rule="evenodd" d="M15.9297293 21.9474844C14.5027413 21.9474844 13.7568743 21.267651 13.6540531 19.8410308 13.6540531 18.516864 14.5715339 17.6674401 16.3704438 17.328443 17.6953465 17.0563993 18.9187155 16.6824541 19.9704708 16.2411878L19.9704708 17.9050875C19.9704708 20.4529913 18.4430529 21.9474844 15.9297293 21.9474844zM24.3520487 11.9960916C24.2499633 8.6673726 21.7366398 7.03713352 16.7789693 7.03713352 12.6339351 7.03713352 10.2909378 8.6673726 9.74924152 11.9960916L14.2656457 11.9960916C14.5027413 11.1468516 15.385274 10.7392459 16.9820364 10.7392459 18.8497389 10.7392459 19.8001446 11.2483852 19.9033336 12.2673996 19.9033336 13.2525694 18.9187155 13.8299496 16.9820364 14.0677809 12.4306841 14.5090473 9.30576793 15.6638076 9.20423437 19.9771447 9.20423437 23.950749 12.1937724 25.9549332 16.5063737 25.6146486 17.9344653 25.5153223 19.5019817 24.9699473 20.2752554 24.242658 20.5942033 24.7988853 21.1719513 25.6525398 22.0763725 25.6525398L24.3531523 25.6525398 24.3531523 14.1450347 24.3520487 14.1450347 24.3520487 11.9960916zM35.0550557 21.5472233C32.4740431 21.5472233 31.2512259 19.7131813 31.2845186 16.0793098 31.4210003 12.6150288 32.6782139 10.9169167 35.1232966 10.9169167 37.5681954 10.9169167 38.8250411 12.6150288 38.9263907 16.0793098 38.9263907 19.7131813 37.637172 21.5472233 35.0550557 21.5472233M36.3805102 6.87543946C34.1386785 6.87543946 32.4401986 7.79236847 31.2845186 9.66043888L31.2845186 4.2946108C31.2845186 2.799198 30.5384676 2.01856676 29.0437906 2.01856676L26.769218 2.01856676 26.769218 17.3357876 26.769218 17.3446167 26.769218 25.4906618 29.0437906 25.4906618C29.9296341 25.4906618 30.5504236 24.6489633 30.911677 24.1146245 31.8471837 25.1139575 33.5127388 25.3963018 35.1904338 25.3854495 40.7609845 25.283732 43.5461678 22.2603494 43.5461678 16.2834806 43.5461678 10.1697621 41.1695099 7.04539782 36.3805102 6.87543946M57.7761915 21.5472233C55.194811 21.5472233 53.9730974 19.7131813 54.0062062 16.0793098 54.1417682 12.6150288 55.3989818 10.9169167 57.8440645 10.9169167 60.2895151 10.9169167 61.5467286 12.6150288 61.6482622 16.0793098 61.6482622 19.7131813 60.3583077 21.5472233 57.7761915 21.5472233zM66.1315576 4.2946108C66.1315576 3.07124173 65.1123593 2.01856676 63.8900939 2.01856676L61.6482622 2.01856676 61.6482622 9.66043888C60.4927661 7.79236847 58.7615453 6.87543946 56.5191618 6.87543946 51.7308979 7.04539782 49.3527684 10.1697621 49.3527684 16.2834806 49.3527684 22.2603494 52.1386876 25.283732 57.7072149 25.3854495 59.4010964 25.3963018 61.3653662 24.9228464 62.0190804 24.1030364 62.3779427 24.6447327 63.0016752 25.4906618 63.8945084 25.4906618L66.1701845 25.4906618 66.1701845 10.1736248 66.1315576 10.2398424 66.1315576 4.2946108zM71.7709525 7.03713352L69.4270355 7.03713352 69.4270355 25.0039757 73.9443594 25.0039757 73.9443594 9.21109218C73.9443594 7.75081146 73.2312332 7.03713352 71.7709525 7.03713352M98.1182441 7.03713352L95.774511 7.03713352 95.774511 25.0039757 100.290915 25.0039757 100.290915 9.21109218C100.290915 7.75081146 99.5776051 7.03713352 98.1182441 7.03713352M107.81897 18.4773045L107.81897 10.3733811 108.295184 10.3733811C109.552398 10.3733811 110.537016 9.42242361 110.537016 8.13210124L110.537016 7.14693138 107.81897 7.14693138 107.81897 4.2946108C107.81897 3.10563806 106.83472 2.01856676 105.645931 2.01856676L103.302361 2.01856676 103.302382 18.9743039C103.302382 21.7856064 103.260812 25.0845275 106.897994 25.0845275L110.575091 25.0845275 110.575091 21.6546428 109.484525 21.6546428C107.717436 21.6546428 107.81897 20.3242221 107.81897 18.4773045M120.062966 21.9474844C118.636898 21.9474844 117.889927 21.267651 117.78821 19.8410308 117.78821 18.516864 118.705139 17.6674401 120.505336 17.328443 121.830055 17.0563993 123.052504 16.6824541 124.105179 16.2411878L124.105179 17.9050875C124.105179 20.4529913 122.57721 21.9474844 120.062966 21.9474844M120.912574 7.03713352C116.769747 7.03713352 114.425094 8.6673726 113.881743 11.9960916L118.399434 11.9960916C118.636898 11.1468516 119.520534 10.7392459 121.116745 10.7392459 122.984631 10.7392459 123.936141 11.2483852 124.036938 12.2673996 124.036938 13.2525694 123.052504 13.8299496 121.116745 14.0677809 116.565576 14.5090473 113.441028 15.6638076 113.339495 19.9771447 113.339495 23.950749 116.328481 25.9549332 120.641266 25.6146486 122.069174 25.5153223 123.521545 25.2756516 124.410148 24.242658 124.727072 24.7988853 125.306108 25.6525398 126.210161 25.6525398L128.486389 25.6525398 128.486389 18.1096261 128.486389 14.1450347 128.486389 11.9960916C128.384672 8.6673726 125.871348 7.03713352 120.912574 7.03713352M85.3781247 21.4383451C82.933226 21.4383451 81.709489 19.7058367 81.6077715 16.2417396 81.6077715 12.6075002 82.8638815 10.8080386 85.4465495 10.8080386 88.02793 10.8080386 89.2829364 12.6075002 89.2490918 16.2417396 89.1142656 19.7058367 87.8239432 21.4383451 85.3781247 21.4383451M89.6511795 9.26903253C88.998017 7.7881508 87.0164571 7.02720089 85.3104357 7.0375014 79.740069 7.1392189 76.9548856 10.1280212 76.9548856 16.1052579 76.9548856 22.2875851 79.3319114 25.4113976 84.1210951 25.4113976 86.3623749 25.4113976 88.0946994 24.5288649 89.2490918 22.7626959L89.2490918 24.5965539C89.2490918 27.3813694 88.02793 28.7737771 85.6501685 28.7737771 83.7824659 28.7737771 82.7288713 28.1631043 82.423167 26.8722301L77.4311001 26.8722301C78.4835911 30.67606 81.0642359 32.5781588 85.1401095 32.5781588 90.8804345 32.4760734 93.7329391 30.2003973 93.7329391 25.6834413L93.7329391 22.3538026 93.7329391 15.0529508 93.7329391 7.03713352 91.4576308 7.03713352C90.6210825 7.03713352 89.6511795 7.43076002 89.6511795 9.26903253M71.7591132.76392507C70.5118322.76392507 69.468722 1.68600433 69.4282557 2.8247621 69.3876055 3.96223231 70.3676251 4.88412763 71.6147222 4.88412763 72.862371 4.88412763 73.9058491 3.96223231 73.9457635 2.8247621 73.9854941 1.68600433 73.0052905.76392507 71.7591132.76392507M98.106505.76392507C96.8583044.76392507 95.8159299 1.68600433 95.7756476 2.8247621 95.7364689 3.96223231 96.715017 4.88412763 97.96193 4.88412763 99.2097628 4.88412763 100.253977 3.96223231 100.292787 2.8247621 100.332518 1.68600433 99.3528663.76392507 98.106505.76392507M137.087541 21.6546428C135.413709 21.6546428 135.416652 20.4612556 135.420882 18.7664544L135.420882 17.6788313 135.420882 18.7561539C135.421986 18.6640012 135.421986 17.4836735 135.421986 17.3893135L135.420882 17.3871062 135.420882 4.24513158C135.420882 3.05634278 134.436816 2.03751233 133.247292 2.03751233L130.910364 2.03751233 130.904846 2.01856676 130.904846 2.03751233 130.904478 2.03751233 130.904478 17.6788313 130.904846 17.6788313 130.904846 19.6568964C130.904846 21.804552 130.864196 25.0836078 134.500827 25.0836078L138.177923 25.0836078 138.177923 21.6546428 137.087541 21.6546428zM4.93871824 18.9649231L4.93927005 17.8773 4.93927005 4.22618601C4.93927005 3.03739721 3.95410019 2.01856676 2.76531139 2.01856676L.421742535 2.01856676.421762245 3.14536859.421762245 17.8773.421762245 18.9553583C.421762245 21.7857903.380928095 25.0646623 4.01645504 25.0646623L7.69575914 25.0646623 7.69575914 21.6358812 6.60519302 21.6358812C5.00383215 21.6358812 4.93651099 20.5423721 4.93871824 18.9649231"/>
</svg>