<svg xmlns="http://www.w3.org/2000/svg" width="35" height="34" viewBox="0 0 35 34">
  <path id="lab-digital-logo-text" fill="#000" fill-rule="evenodd" d="M20.7959867,23.7606931 C20.3427644,24.1340865 19.869125,24.4824643 19.4087292,24.8348888 C18.9321468,25.1635853 18.4820515,25.5217118 18.0194484,25.825025 C17.7908139,25.9810041 17.5651225,26.134408 17.3449491,26.2846851 C17.1577007,26.4047963 16.9752345,26.5214128 16.7960793,26.6360059 C15.9819714,24.9487462 14.2604993,23.7823978 12.2622011,23.7823978 C11.486904,23.7823978 10.7537287,23.9633924 10.0972553,24.2768221 C9.67806151,23.2620383 9.25739619,22.1194178 8.85769975,20.8954969 C8.4329878,19.5444751 8.03513074,18.1007488 7.73935906,16.634766 C7.93580443,16.6483774 8.13114617,16.6647478 8.33182211,16.6647478 C12.0339345,16.6647478 15.1687832,14.2478076 16.254383,10.9069487 C16.3494788,10.9420808 16.4427351,10.9746378 16.5383827,11.0108735 C17.1632188,11.2380364 17.7911818,11.5043781 18.4077407,11.7949995 C19.0204369,12.0948178 19.6305579,12.4019936 20.2224692,12.7266435 C20.8151162,13.0489022 21.3956233,13.3737361 21.9533221,13.698202 C22.0574308,13.7592693 22.1569411,13.8210723 22.2595783,13.8821396 C21.4427113,14.9815347 20.9521497,16.3389943 20.9521497,17.8138061 C20.9521497,19.4725555 21.5681568,20.983603 22.5776064,22.1427779 C22.4210755,22.2947103 22.2656482,22.4470107 22.1023116,22.5989432 C21.6937862,23.0043417 21.2503126,23.3876676 20.7959867,23.7606931 M27.55551,11.2109976 C25.8776311,11.2109976 24.3513168,11.8419036 23.1858881,12.8725061 C23.0449919,12.7566254 22.906119,12.6418483 22.7609922,12.5252318 C22.2382415,12.1122919 21.6954416,11.6862924 21.1180614,11.2884353 C20.5480388,10.8815653 19.9528166,10.4886746 19.3509728,10.1009341 C18.7447144,9.72128685 18.1402954,9.33133911 17.5268634,8.96714263 C17.2406565,8.79185008 16.950219,8.62796167 16.6573903,8.47345407 C16.65831,8.42581423 16.6640121,8.37982983 16.6640121,8.33255786 C16.6640121,3.73080663 12.9339412,0 8.33182211,0 C3.72951907,0 0,3.73080663 0,8.33255786 C0,12.1139473 2.52049713,15.302138 5.97190252,16.3206006 C5.9855139,16.3704477 5.99710197,16.4212144 6.01126517,16.4714294 C6.24229081,17.321773 6.50072316,18.162184 6.79005703,18.9744525 C7.06761889,19.7913194 7.39355634,20.5747097 7.71581504,21.3266467 C8.04506337,22.0756406 8.37486351,22.7933652 8.71901079,23.4577479 C8.94286287,23.8922085 9.16340407,24.2979749 9.38247376,24.6906817 C8.0794597,25.600989 7.22525342,27.1094613 7.22525342,28.8193454 C7.22525342,31.60085 9.48032857,33.8557412 12.2622011,33.8557412 C15.0440735,33.8557412 17.2991487,31.60085 17.2991487,28.8193454 C17.2991487,28.3894832 17.2397368,27.9745199 17.1380193,27.576295 C17.1402266,27.5753753 17.1413302,27.5744556 17.1435375,27.5735359 C17.38376,27.4675879 17.6295006,27.3588807 17.881863,27.2475985 C18.1287073,27.1269354 18.3810697,27.0029615 18.6378466,26.8771481 C19.1563668,26.632879 19.6699206,26.3426254 20.1985573,26.0536594 C20.7152381,25.7481391 21.2471856,25.4442741 21.7625788,25.1128185 C22.2783399,24.7822826 22.805689,24.4651742 23.3102299,24.1243378 C23.6238435,23.9293639 23.9186955,23.7165481 24.2049025,23.4965587 C25.1878651,24.0779855 26.3310374,24.4167986 27.55551,24.4167986 C31.2018893,24.4167986 34.1585025,21.4607372 34.1585025,17.8138061 C34.1585025,14.1672429 31.2018893,11.2109976 27.55551,11.2109976"/>
</svg>