<svg xmlns="http://www.w3.org/2000/svg" width="22px" height="22px" viewBox="0 0 22 22">
    <g id="linkedin" fill-rule="evenodd">
        <polygon points="4.8828125 21.875 0.3417969 21.875 0.3417969 7.2753906 4.8828125 7.2753906"></polygon>
        <path d="M21.875,21.875 L17.3339844,21.875 L17.3339844,14.7460938 C17.3339844,13.5742129 17.2363291,12.7278672 17.0410156,12.2070312 C16.6829409,11.3281206 15.9830781,10.8886719 14.9414062,10.8886719 C13.8997344,10.8886719 13.1673198,11.279293 12.7441406,12.0605469 C12.4186182,12.6464873 12.2558594,13.5091089 12.2558594,14.6484375 L12.2558594,21.875 L7.7636719,21.875 L7.7636719,7.2753906 L12.109375,7.2753906 L12.109375,9.2773438 L12.1582031,9.2773438 C12.4837256,8.6262988 13.0045537,8.0891948 13.7207031,7.6660156 C14.501957,7.1451797 15.4134063,6.8847656 16.4550781,6.8847656 C18.5709741,6.8847656 20.0520791,7.5520767 20.8984375,8.8867188 C21.5494824,9.9609429 21.875,11.6210825 21.875,13.8671875 L21.875,21.875 Z"></path>
        <path d="M2.6367188,5.2734375 C1.9205693,5.2734375 1.3020859,5.0130234 0.78125,4.4921875 C0.2604141,3.9713516 0,3.3528682 0,2.6367188 C0,1.9205693 0.2604141,1.3020859 0.78125,0.78125 C1.3020859,0.2604141 1.9205693,0 2.6367188,0 C3.3528682,0 3.9713516,0.2604141 4.4921875,0.78125 C5.0130234,1.3020859 5.2734375,1.9205693 5.2734375,2.6367188 C5.2734375,3.3528682 5.0130234,3.9713516 4.4921875,4.4921875 C3.9713516,5.0130234 3.3528682,5.2734375 2.6367188,5.2734375 Z"></path>
    </g>
</svg>