<svg xmlns="http://www.w3.org/2000/svg" width="25px" height="21px" viewBox="0 0 25 21">
    <path id="twitter" fill-rule="evenodd" d="M22.4121094,5.078125 C22.4446616,5.208334 22.4609375,5.4199204 22.4609375,5.7128906 C22.4609375,8.0566523 21.8912817,10.3189995 20.7519531,12.5 C19.5800723,14.8112095 17.9362085,16.6503838 15.8203125,18.0175781 C13.509103,19.5475337 10.8561348,20.3125 7.8613281,20.3125 C4.9967305,20.3125 2.376314,19.5475337 0,18.0175781 C0.3580747,18.0501304 0.7649717,18.0664062 1.2207031,18.0664062 C3.5970171,18.0664062 5.7291572,17.3339917 7.6171875,15.8691406 C6.4778589,15.8691406 5.4768923,15.5354851 4.6142578,14.8681641 C3.7516233,14.200843 3.1575537,13.3626353 2.8320312,12.3535156 C3.1575537,12.3860679 3.4667954,12.4023438 3.7597656,12.4023438 C4.2154971,12.4023438 4.6712217,12.3535161 5.1269531,12.2558594 C3.9550723,11.9954414 2.9785195,11.3932339 2.1972656,10.4492188 C1.4160117,9.5052036 1.0253906,8.4309956 1.0253906,7.2265625 L1.0253906,7.1289062 C1.74154,7.5520854 2.5065063,7.7799478 3.3203125,7.8125 C2.6367153,7.3242163 2.0833354,6.7057329 1.6601562,5.9570312 C1.2369771,5.2083296 1.0253906,4.3863977 1.0253906,3.4912109 C1.0253906,2.5960242 1.2695288,1.7415405 1.7578125,0.9277344 C3.0273501,2.5227944 4.5816965,3.792313 6.4208984,4.7363281 C8.2601003,5.6803433 10.2213438,6.2011714 12.3046875,6.2988281 C12.239583,5.9082012 12.2070312,5.5175801 12.2070312,5.1269531 C12.2070312,4.2154902 12.4348936,3.3610066 12.890625,2.5634766 C13.3463564,1.7659465 13.9648398,1.1393252 14.7460938,0.6835938 C15.5273477,0.2278623 16.3736934,0 17.2851562,0 C18.0338579,0 18.7255828,0.1464829 19.3603516,0.4394531 C19.9951204,0.7324233 20.5566382,1.1230444 21.0449219,1.6113281 C22.2168027,1.3834624 23.3072866,0.9765654 24.3164062,0.390625 C23.9257793,1.5950581 23.1770889,2.5390591 22.0703125,3.2226562 C23.0468799,3.0924473 24.0234326,2.8157573 25,2.3925781 C24.2838506,3.43425 23.421229,4.3294233 22.4121094,5.078125 Z"></path>
</svg>